<?xml version="1.0" encoding="utf-8"?>
<!-- Generator: Adobe Illustrator 16.2.1, SVG Export Plug-In . SVG Version: 6.00 Build 0)  -->
<!DOCTYPE svg PUBLIC "-//W3C//DTD SVG 1.1//EN" "http://www.w3.org/Graphics/SVG/1.1/DTD/svg11.dtd">
<!-- <svg version="1.1" id="Layer_1" xmlns="http://www.w3.org/2000/svg" xmlns:xlink="http://www.w3.org/1999/xlink" x="0px" y="0px"
	 width="512px" height="512px" viewBox="0 0 512 512" style="enable-background:new 0 0 512 512;" xml:space="preserve">
<path d="M256,298.3L256,298.3L256,298.3l174.2-167.2c4.3-4.2,11.4-4.1,15.8,0.2l30.6,29.9c4.4,4.3,4.5,11.3,0.2,15.5L264.1,380.9
	c-2.2,2.2-5.2,3.2-8.1,3c-3,0.1-5.9-0.9-8.1-3L35.2,176.7c-4.3-4.2-4.2-11.2,0.2-15.5L66,131.3c4.4-4.3,11.5-4.4,15.8-0.2L256,298.3
	z"/>
</svg> -->

<svg id="bp-ucon-file-note" version="1.1" xmlns="http://www.w3.org/2000/svg" xmlns:xlink="http://www.w3.org/1999/xlink" x="0px" y="0px"
	 viewBox="0 0 512 512" style="enable-background:new 0 0 512 512;" xml:space="preserve" width="100%" height="100%">
        <title>file-note</title>
        <path d="M15.414 2h-9.414c-1.103 0-2 0.898-2 2v16c0 1.103 0.897 2 2 2h12c1.103 0 2-0.897 2-2v-13.414l-4.586-4.586zM7 12h8v2h-8v-2zM17 18h-10v-2h10v2zM14 8v-5l5 5h-5z"></path>
      </svg>
