<?xml version="1.0" encoding="utf-8"?>
<!-- Generator: Adobe Illustrator 16.0.0, SVG Export Plug-In . SVG Version: 6.00 Build 0)  -->
<!DOCTYPE svg PUBLIC "-//W3C//DTD SVG 1.1//EN" "http://www.w3.org/Graphics/SVG/1.1/DTD/svg11.dtd">
<svg version="1.1" id="Layer_1" xmlns="http://www.w3.org/2000/svg" xmlns:xlink="http://www.w3.org/1999/xlink" x="0px" y="0px"
	 width="140.88px" height="143.71px" viewBox="0 0 140.88 143.71" enable-background="new 0 0 140.88 143.71" xml:space="preserve">
<g>
	<ellipse display="none" fill="#CADF84" cx="70.597" cy="134.19" rx="71.854" ry="8.624"/>
	<g>
		<path fill="#B8B8B8" d="M124.294,125.347c-1.442,0-2.797,0.349-4.011,0.915l-14.975-13.912l-4.992,5.374l15.162,14.087
			c0,0.002-0.001,0.002-0.001,0.004h18.491C132.271,128.272,128.614,125.347,124.294,125.347z"/>
		<path fill="#B8B8B8" d="M33.975,133.693l-4.413-19.705l-7.157,1.604l2.762,12.335c-0.811-0.128-1.647-0.204-2.508-0.204
			c-5.637,0-10.409,2.926-12.624,6.468h24.128C34.11,134.022,34.043,133.857,33.975,133.693z"/>
		<g>
			<g>
				
					<rect x="19.647" y="33.086" transform="matrix(0.0203 0.9998 -0.9998 0.0203 59.3888 10.6589)" fill="#F7C9A6" width="9.216" height="5.096"/>
			</g>
		</g>
		<g>
			<path fill="#F5F5F5" d="M47.787,56.526l-19.198,3.025l-1.432,0.226c-2.604,0.411-5.049-1.367-5.459-3.972
				c-0.03-0.193-0.05-0.413-0.056-0.604l-0.432-14.77c-0.052-1.783,1.353-3.271,3.136-3.323c1.414-0.042,2.644,0.837,3.118,2.089
				l5.213,13.825l-6.946-4.351l18.206-6.799c3.939-1.471,8.325,0.53,9.796,4.47c1.472,3.938-0.529,8.324-4.469,9.795
				C48.79,56.315,48.269,56.447,47.787,56.526z"/>
		</g>
		<path fill="#FFFFFF" d="M111.461,115.37c-1.578-1.49-3.098-3.041-4.641-4.567l-4.539-4.676c-3.008-3.138-5.966-6.327-8.893-9.549
			c-2.923-3.228-5.843-6.458-8.689-9.766c-2.865-3.288-5.708-6.601-8.465-10.004c-0.533-0.651-1.19-1.283-1.908-1.796
			c-4.377-3.123-10.456-2.108-13.58,2.268c-0.01,0.015-0.017,0.029-0.026,0.043c-3.217-4.039-9.068-4.868-13.28-1.797
			c-4.751,3.465-9.559,6.832-14.388,10.165c-4.811,3.363-9.676,6.635-14.545,9.899l-1.063,0.713
			c-2.251,1.508-3.235,4.426-2.21,7.054c1.004,2.571,1.942,5.158,2.832,7.757c0.856,2.606,1.718,5.212,2.397,7.862
			c0.77,2.989,3.791,4.838,6.813,4.135c3.066-0.714,4.974-3.777,4.26-6.844c-0.62-2.665-1.06-5.374-1.504-8.081
			c-0.124-0.82-0.234-1.645-0.349-2.467c3.887-1.992,7.778-3.974,11.704-5.898c5.253-2.615,10.525-5.196,15.855-7.679
			c0.542-0.257,1.116-0.589,1.618-0.955c0.866-0.632,1.591-1.384,2.18-2.213c0.556,0.701,1.21,1.34,1.974,1.885
			c3.564,2.545,7.044,5.181,10.5,7.841c3.476,2.64,6.877,5.357,10.276,8.078c3.395,2.726,6.758,5.484,10.073,8.295l4.943,4.246
			c1.617,1.447,3.258,2.87,4.841,4.354c2.289,2.162,5.879,2.044,8.041-0.244C113.852,121.14,113.749,117.532,111.461,115.37z"/>
		<g>
			<path fill="#B82025" d="M54.465,72.507c-2.313,2.896-2.995,6.581-2.937,10.148c0.04,3.604,0.663,7.218,1.038,10.967
				c0.366,3.731,0.571,7.721-0.576,11.784c-0.57,2.015-1.511,3.996-2.779,5.742c-1.265,1.754-2.824,3.26-4.498,4.541l-3.369-5.048
				c2.774-1.585,5.004-3.791,6.262-6.764c1.293-2.957,1.651-6.514,1.746-10.135c0.109-3.634-0.055-7.402,0.389-11.19
				c0.227-1.888,0.622-3.784,1.341-5.563c0.712-1.778,1.768-3.414,3.112-4.728L54.465,72.507z"/>
		</g>
		<g>
			<path fill="#B82025" d="M54.328,72.802c-1.257,2.765-1.623,5.781-0.994,8.6c0.608,2.835,1.975,5.468,3.265,8.265
				c1.287,2.782,2.589,5.854,2.864,9.371c0.314,3.515-0.643,7.153-2.216,10.255l-5.183-3.156c1.51-2.133,2.56-4.452,2.756-7.045
				c0.229-2.592-0.4-5.411-1.236-8.302c-0.814-2.892-1.846-5.931-2.025-9.159c-0.211-3.233,0.75-6.443,2.449-9.006L54.328,72.802z"
				/>
		</g>
		<g>
			<g>
				<path fill="#F5F5F5" d="M79.24,71.275H41.804c-0.911,0-1.649-0.738-1.649-1.649V47.769c0-4.245,3.44-7.686,7.686-7.686h25.364
					c4.245,0,7.686,3.44,7.686,7.686v21.857C80.89,70.537,80.151,71.275,79.24,71.275z"/>
			</g>
			<g opacity="0.3">
				<path fill="#292929" d="M80.89,55.649v-7.881c0-2.127-0.864-4.051-2.259-5.442c-1.726-0.55-3.648-0.498-5.43,0.303
					L44.573,53.244l-3.392-9.303c-0.65,1.128-1.027,2.432-1.027,3.827v17.438c0.76,0.327,1.622,0.433,2.488,0.226l0.61-0.146
					l34.837-8.317c0.443-0.109,0.925-0.269,1.355-0.462C79.969,56.271,80.449,55.979,80.89,55.649z"/>
			</g>
			<g>
				<path fill="#B82025" d="M77.35,78.598H43.693c-0.936,0-1.694-0.759-1.694-1.695v-5.627h37.046v5.627
					C79.045,77.839,78.286,78.598,77.35,78.598z"/>
			</g>
		</g>
		<g>
			<polygon fill="#C9C9C9" points="60.861,50.979 52.107,41.773 52.107,33.359 68.936,33.359 68.936,41.918 			"/>
		</g>
		<g>
			<g>
				<path fill="#FFFFFF" d="M63.049,43.56l-2.462-0.263c-8.248-0.884-14.219-8.286-13.336-16.534l1.89-17.643
					c0.473-4.419,4.438-7.617,8.856-7.145l16.33,1.748c4.419,0.474,7.617,4.439,7.145,8.857l-1.889,17.644
					C78.699,38.473,71.297,44.443,63.049,43.56z"/>
			</g>
			<g>
				
					<rect x="48.629" y="10.799" transform="matrix(0.9943 0.1064 -0.1064 0.9943 1.7082 -6.8599)" fill="#B82025" width="32.984" height="3.549"/>
			</g>
			<g>
				<g>
					<path fill="#B82025" d="M79.801,14.411c1.176,2.572,3.448,4.308,5.897,5.497c2.468,1.215,5.142,2.036,7.823,3.073
						c2.667,1.037,5.454,2.272,7.824,4.454c1.175,1.082,2.2,2.405,2.952,3.871c0.758,1.466,1.245,3.047,1.541,4.628l-4.598,0.554
						c-0.123-2.436-0.857-4.713-2.446-6.595c-1.568-1.899-3.866-3.369-6.299-4.682c-2.437-1.326-5.058-2.515-7.484-4.121
						c-2.414-1.57-4.627-3.799-5.471-6.579L79.801,14.411z"/>
				</g>
				<g>
					<path fill="#B82025" d="M79.954,14.606c1.45,1.808,3.378,3.098,5.513,3.64c2.14,0.563,4.403,0.541,6.752,0.627
						c2.338,0.083,4.877,0.255,7.367,1.28c2.501,0.997,4.648,2.902,6.218,5.043l-3.936,2.44c-0.932-1.764-2.148-3.277-3.846-4.305
						c-1.687-1.049-3.822-1.593-6.078-2.02c-2.25-0.442-4.675-0.788-6.934-1.777c-2.274-0.972-4.129-2.732-5.287-4.772
						L79.954,14.606z"/>
				</g>
			</g>
			<g>
				<path fill="#F7C9A6" d="M78.646,26.523l-22.731-2.437c-0.75-0.081-1.292-0.754-1.212-1.504l0.574-5.353
					c0.08-0.75,0.753-1.293,1.503-1.213l22.731,2.438c0.75,0.08,1.293,0.753,1.212,1.503l-0.573,5.354
					C80.069,26.062,79.396,26.604,78.646,26.523z"/>
			</g>
			<g>
				<g>
					<g>
						<circle fill="#333333" cx="61.934" cy="21.287" r="1.795"/>
					</g>
					<g>
						<path fill="#333333" d="M65.466,22.34c-0.093,0-0.188-0.028-0.269-0.086l-4.817-3.38c-0.211-0.149-0.264-0.44-0.114-0.652
							c0.15-0.213,0.441-0.264,0.651-0.114l4.817,3.38c0.211,0.149,0.264,0.44,0.114,0.652C65.757,22.27,65.612,22.34,65.466,22.34z
							"/>
					</g>
				</g>
				<g>
					<g>
						<circle fill="#333333" cx="75.884" cy="22.783" r="1.794"/>
					</g>
					<g>
						<path fill="#333333" d="M72.309,23.073c-0.183,0-0.357-0.108-0.433-0.287c-0.101-0.239,0.012-0.513,0.25-0.613l5.424-2.283
							c0.239-0.097,0.514,0.012,0.614,0.25c0.101,0.239-0.012,0.513-0.25,0.613l-5.424,2.283
							C72.431,23.061,72.369,23.073,72.309,23.073z"/>
					</g>
				</g>
			</g>
		</g>
		<g>
			<g>
				<g>
					<path fill="#DBDBDB" d="M120.375,41.645l10.431,2.469c-29.178,2.982-85.449-8.05-87.831-8.521l0.576-2.912
						C44.129,32.794,93.89,43.437,120.375,41.645z"/>
				</g>
			</g>
			<g>
				<path fill="#404040" d="M17.095,31.792l25.058,4.2c0.174,1.403,0.755,2.77,1.662,4.022l1.887-11.257
					c-1.267,0.89-2.261,1.991-2.883,3.261l-25.058-4.2c-0.667-0.111-1.298,0.339-1.41,1.006l-0.261,1.558
					C15.978,31.049,16.428,31.681,17.095,31.792z"/>
			</g>
		</g>
		<g>
			<g>
				
					<rect x="33.018" y="35.27" transform="matrix(0.1319 0.9913 -0.9913 0.1319 70.1502 -4.4678)" fill="#F7C9A6" width="9.216" height="5.096"/>
			</g>
			<g>
				<circle fill="#F7C9A6" cx="36.821" cy="32.406" r="3.919"/>
			</g>
			<g>
				<path fill="#F7C9A6" d="M39.03,28.164l-5.21,0.693c-0.779,0.104-1.326,0.819-1.223,1.599l0.328,2.468
					c0.104,0.779,0.819,1.326,1.599,1.223l5.21-0.693c0.779-0.104,1.326-0.819,1.223-1.599l-0.328-2.468
					C40.524,28.608,39.81,28.061,39.03,28.164z"/>
			</g>
		</g>
		<g>
			<path fill="#F5F5F5" d="M78.047,56.459l-35.135,6.953l-0.615,0.122c-2.156,0.427-4.249-0.976-4.676-3.131
				c-0.013-0.065-0.025-0.145-0.035-0.211l-2.75-19.285c-0.249-1.745,0.964-3.361,2.709-3.609c1.628-0.232,3.147,0.823,3.545,2.381
				l4.747,18.894l-5.326-3.219l33.21-13.413c3.896-1.574,8.331,0.31,9.904,4.206c1.574,3.896-0.31,8.33-4.205,9.904
				C78.98,56.228,78.494,56.368,78.047,56.459z"/>
		</g>
		<g>
			<circle fill="#F7C9A6" cx="24.229" cy="30.163" r="3.919"/>
		</g>
		<g>
			<path fill="#F7C9A6" d="M21.399,26.307l5.255-0.107c0.786-0.016,1.436,0.607,1.451,1.394l0.051,2.489
				c0.017,0.785-0.607,1.436-1.394,1.451l-5.255,0.107c-0.785,0.016-1.436-0.608-1.451-1.394l-0.051-2.489
				C19.99,26.972,20.613,26.322,21.399,26.307z"/>
		</g>
	</g>
</g>
</svg>
