<?xml version="1.0" encoding="utf-8"?>
<!-- Generator: Adobe Illustrator 16.0.0, SVG Export Plug-In . SVG Version: 6.00 Build 0)  -->
<!DOCTYPE svg PUBLIC "-//W3C//DTD SVG 1.1//EN" "http://www.w3.org/Graphics/SVG/1.1/DTD/svg11.dtd">
<svg version="1.1" id="Layer_1" xmlns="http://www.w3.org/2000/svg" xmlns:xlink="http://www.w3.org/1999/xlink" x="0px" y="0px"
	 width="252.54px" height="153.16px" viewBox="0 0 252.54 153.16" enable-background="new 0 0 252.54 153.16" xml:space="preserve">
<g>
	<path fill="#FF0000" stroke="#FFFFFF" stroke-miterlimit="10" d="M67.53,79.12c-0.17,0.26-0.5,1.08-0.95,2.45
		c-0.46,1.38-1.02,3.1-1.68,5.199c-0.66,2.07-1.38,4.4-2.14,6.971l-2.37,7.88c-0.9,2.68-1.6,5.3-2.4,7.88l-2,6.98l-1.5,5.22
		l-0.7,2.5c-0.3,0.829-0.6,1.75-1.1,2.771c-0.5,1-1.1,1.969-1.7,2.879c-0.7,0.9-1.4,1.67-2.2,2.271s-1.6,0.899-2.5,0.899
		c-1.4,0-2.4-0.479-3.1-1.399c-0.7-0.95-1-2.66-1-5.16v-2.26c0-0.83,0.4-2.4,1-4.681c0.6-2.3,1.3-4.879,2.2-7.76
		c0.8-2.9,1.8-5.88,2.7-8.97l2.7-8.399c-2.4,2.6-4.9,5.199-7.6,7.699c-2.7,2.6-5.5,4.9-8.3,6.9c-2.9,2-5.8,3.699-8.7,5
		c-2.9,1.3-5.7,1.9-8.4,1.9c-3.1,0-5.7-0.701-7.9-2.101c-2.2-1.399-4.1-3.101-5.5-5.3c-1.4-2.2-2.5-4.7-3.2-7.4
		C0.8,98.5,0.4,95.7,0.4,93v-1c0-0.3,0.04-0.63,0.1-0.939c0.24-5,0.95-10.101,2.1-15.34c1.2-5.28,2.7-10.5,4.6-15.7
		c1.9-5.2,4.1-10.3,6.6-15.26C16.4,40,19.1,35.3,22,30.9s6.02-8.5,9.3-12.2c3.3-3.72,6.67-6.92,10.14-9.6
		c3.46-2.7,6.96-4.8,10.5-6.3c3.5-1.5,7-2.3,10.46-2.3c4,0,7.86,1.1,11.6,3.27C77.7,6,81.2,9.5,84.48,14.4
		c0.74,1.1,1.2,2.2,1.4,3.32c0.2,1.1,0.3,2.17,0.3,3.15c0,2.34-0.55,4.2-1.67,5.54c-1.1,1.4-2.4,2-4,2c-1.4,0-2.7-0.7-3.9-2.2
		c-1.2-1.5-2.6-3.6-4-6.3c-1.4-2.5-2.9-4.3-4.6-5.4c-1.7-1.1-3.5-1.6-5.5-1.6c-3.1,0-6.3,1.3-9.8,3.9s-6.9,5.9-10.3,10.1
		c-3.4,4.2-6.7,9-9.8,14.4s-5.9,10.9-8.3,16.6c-2.4,5.7-4.3,11.2-5.7,16.7c-1.4,5.5-2.1,10.4-2.1,14.8c0,1.5,0.1,3,0.3,4.5
		c0.2,1.6,0.6,2.9,1.1,4.199c0.5,1.301,1.3,2.301,2.3,3.101s2.2,1.2,3.6,1.2c1.6,0,3.5-0.5,5.5-1.6c2.1-1.101,4.2-2.5,6.4-4.301
		c2.2-1.8,4.5-3.8,6.7-6c2.2-2.199,4.4-4.5,6.3-6.8s3.7-4.5,5.1-6.601c1.5-2.1,2.6-3.899,3.4-5.5L63,53c0.74-1.97,1.7-3.38,2.93-4.2
		c1.2-0.84,2.43-1.26,3.7-1.26c0.6,0,1.23,0.1,1.85,0.3c0.6,0.2,1.18,0.52,1.67,0.96c0.5,0.4,0.87,1,1.16,1.7
		c0.3,0.7,0.5,1.5,0.5,2.5c0,2.5-0.2,4.86-0.6,7.04c-0.4,2.2-1,4.3-1.7,6.4c-0.6,2.05-1.4,4.14-2.2,6.25c-0.8,2.1-1.6,4.3-2.4,6.6
		L67.53,79.12z M150.56,94.4c-1.931,2.6-4.181,5.14-6.74,7.6c-2.569,2.48-5.22,4.68-7.94,6.6c-2.719,1.92-5.399,3.471-8.029,4.641
		c-2.64,1.17-5,1.75-7.1,1.75s-3.83-0.7-5.15-2.1c-1.32-1.4-1.98-3.801-1.98-7.201c0-2.399,0.36-5.199,1.06-8.399
		c-1.14,2-2.57,4.101-4.28,6.101c-1.7,2.1-3.67,4-5.86,5.699c-2.2,1.7-4.66,3.1-7.38,4.1c-2.72,1-5.68,1.601-8.9,1.601
		c-1.43,0-2.83-0.2-4.17-0.601c-1.4-0.399-2.6-1-3.6-1.899s-1.8-2.101-2.5-3.601c-0.6-1.5-0.9-3.399-0.9-5.6l0.2-2.4
		c0.2-1.5,0.7-4,1.7-7.299c1-3.301,2.4-7.601,4.4-12.9c2-5.3,4.7-11.6,8.3-19.1c0.9-2,1.9-3.4,3.2-4.3c1.2-0.9,2.5-1.3,3.9-1.3
		c0.6,0,1.2,0.1,1.9,0.3c0.6,0.1,1.2,0.4,1.8,0.8c0.6,0.4,1,0.9,1.4,1.5c0.3,0.5,0.5,1.2,0.5,2c0,0.5-0.1,1-0.2,1.4
		c-0.3,0.9-0.7,2-1.4,3.4l-2.6,4.94c-1,1.8-2,3.8-3.1,5.92c-1.1,2.13-2.1,4.4-3,6.62c-0.9,2.301-1.7,4.65-2.4,7
		c-0.7,2.4-1.1,4.7-1.2,6.9c0,1,0.2,1.8,0.6,2.6c0.4,0.801,1.2,1.2,2.2,1.2c2.8,0,5.6-0.899,8.2-2.8c2.6-1.87,5-4.2,7.2-6.98
		c2.2-2.8,4.2-5.8,6-9c1.8-3.199,3.2-6.1,4.4-8.74c0.8-1.77,1.6-3.67,2.2-5.7c0.6-2,1.3-3.9,2.1-5.6c0.7-1.7,1.6-3.16,2.6-4.3
		c0.9-1.14,2.101-1.7,3.601-1.7s2.8,0.6,3.699,1.8c0.9,1.2,1.4,2.6,1.4,4.3c0,0.9-0.3,2.2-0.9,3.8c-0.6,1.6-1.3,3.5-2.199,5.6
		l-2.9,6.771c-1.1,2.4-2,4.8-2.9,7.3c-0.9,2.45-1.7,4.899-2.3,7.239c-0.6,2.4-0.9,4.601-0.9,6.601c0,1.899,1,2.8,2.9,2.8
		c1.4,0,3.101-0.4,5.101-1.4c2-0.899,4.1-2.199,6.3-3.899s4.399-3.7,6.601-6c2.199-2.3,4.199-4.739,5.899-7.399l0.7,10.6
		L150.56,94.4z"/>
	<path fill="#FF0000" stroke="#FFFFFF" stroke-miterlimit="10" d="M152.6,90.5c-0.48,1.2-0.95,2.6-1.4,4.18
		c-0.47,1.58-0.699,3-0.699,4.25c0,0.78,0.129,1.4,0.399,1.87c0.261,0.47,0.761,0.7,1.5,0.7c0.931,0,2.08-0.32,3.47-0.971
		c1.381-0.649,2.871-1.5,4.471-2.579c1.6-1.06,3.279-2.28,5-3.66c1.74-1.399,3.47-2.899,5.18-4.3c1.7-1.5,3.34-3,4.9-4.5
		c1.56-1.5,2.959-2.9,4.199-4.1c0.34-0.4,0.75-0.601,1.24-0.801c0.48-0.199,0.9-0.3,1.25-0.3c0.9,0,1.6,0.3,2.2,1.101
		c0.601,0.699,0.899,1.699,0.899,2.899c0,1.101-0.299,2.3-0.899,3.601c-0.601,1.299-1.7,2.6-3.2,3.899c-2.8,3-5.6,5.899-8.5,8.7
		c-2.8,2.699-5.699,5.199-8.5,7.3c-2.8,2.101-5.6,3.7-8.4,5c-2.799,1.2-5.5,1.8-8.1,1.8c-1.8,0-3.3-0.3-4.5-0.9
		c-1.199-0.6-2.1-1.399-2.9-2.399c-0.699-1-1.199-2.2-1.5-3.5c-0.299-1.399-0.399-2.8-0.399-4.3c0-2.6,0.3-5.2,1-7.9
		c0.7-2.699,1.399-5.199,2.3-7.4c1.6-4.1,3.1-8.1,4.7-12.1l4.399-11L170.6,15c0.75-2,1.8-3.42,3.15-4.3
		c1.359-0.8,2.699-1.2,4.069-1.2c1.4,0,2.601,0.4,3.74,1.3c1.101,0.86,1.7,2.3,1.7,4.27c0,0.93-0.2,1.92-0.551,2.96
		c-0.399,1-0.799,2.14-1.399,3.33c-1.101,2.42-2.399,5.4-3.899,8.94l-5,11.6c-1.701,4.15-3.5,8.5-5.301,13l-5.4,13.2
		c-1.799,4.28-3.399,8.3-4.899,12.14l-3.899,9.93L152.6,90.5z"/>
	<path fill="#FF0000" stroke="#FFFFFF" stroke-miterlimit="10" d="M245.9,76.4c0.63-0.43,1.2-0.77,1.729-1.03
		c0.521-0.26,1.031-0.4,1.5-0.4c0.971,0,1.701,0.44,2.181,1.3c0.5,0.86,0.8,1.9,0.8,3.16c0,1.35-0.3,2.73-0.9,4.131
		c-0.6,1.399-1.399,2.58-2.6,3.5c-4.699,4.17-8.9,7.969-12.5,11.399c-3.699,3.431-7.1,6.38-10.4,8.851
		c-3.299,2.5-6.5,4.399-9.6,5.799c-3.1,1.4-6.4,2.101-10,2.101c-3.3,0-5.9-0.7-7.699-2.2c-1.801-1.4-2.701-3.4-2.701-6v-0.6
		c0-0.1,0.101-0.4,0.101-0.6c0.2-1.5,0.899-3.301,2.101-5.4c1.199-2,2.6-4.1,4.299-6.301c1.701-2.199,3.5-4.399,5.4-6.6
		c1.9-2.199,3.6-4.3,5.301-6.3c1.6-2,2.899-3.8,4-5.5c1.1-1.6,1.6-3,1.6-4c0-0.6-0.2-1.1-0.62-1.5c-0.47-0.3-1.2-0.5-2.2-0.5
		c-1.8,0-3.6,0.5-5.46,1.4c-1.899,0.9-3.76,2.2-5.601,3.7c-1.799,1.6-3.6,3.299-5.319,5.299s-3.3,4.101-4.899,6.201
		c-1.5,2.199-2.9,4.299-4.201,6.5c-1.199,2.199-2.299,4.199-3.199,6l-1.1,2.399l-1.5,3.601l-1.801,4l-1.699,3.899l-1.4,3.3
		c-0.4,1-0.7,1.6-0.9,2c-0.199,0.5-0.5,1.4-1,2.7l-1.8,4.58l-2.101,5.5l-2,5.399l-1.699,4.58c-0.5,1.301-0.801,2.181-0.9,2.65
		c-0.5,1.301-1,2.6-1.6,3.801c-0.6,1.199-1.25,2.229-2.02,3.139c-0.761,0.9-1.641,1.65-2.631,2.201c-1,0.5-2.1,0.799-3.3,0.799
		c-1.601,0-2.899-0.399-3.899-1.119c-1-0.7-1.601-2.2-1.601-4.301c0-1,0.101-2.1,0.399-3.199c0.201-1.1,0.601-2.12,1-3.2
		c0.301-1.101,0.801-2.101,1.201-3.101c0.399-1,0.799-2,1.1-2.959c2.3-5.201,4.75-10.4,7.199-15.66
		c2.451-5.26,4.801-10.4,7.101-15.5c2.26-5.1,4.351-10.1,6.3-15.1c1.9-4.9,3.5-9.66,4.801-14.201l1.399-3.96
		c0.601-1.7,1.3-3.4,2.101-5c0.799-1.6,1.699-3.1,2.699-4.3c1-1.2,2.1-1.83,3.2-1.83c1.8,0,3.069,0.4,3.86,1.2
		c0.8,0.88,1.199,2,1.199,3.6c0,0.3-0.039,0.8-0.129,1.5c-0.101,0.7-0.201,1.4-0.361,2.15l-0.43,2.1c-0.1,0.7-0.3,1.2-0.4,1.5
		c1.601-1.76,3.4-3.5,5.281-5.25c1.899-1.73,3.899-3.3,5.899-4.7c2-1.4,4.101-2.6,6.2-3.45c2.1-0.9,4.199-1.35,6.3-1.35
		c1.5,0,2.899,0.2,4.36,0.6c1.4,0.42,2.699,1.03,3.8,1.84c1.17,0.8,2.08,1.8,2.78,3c0.699,1.2,1.05,2.63,1.05,4.24
		c0,2.13-0.56,4.4-1.601,6.8c-1.1,2.44-2.399,4.899-4.06,7.3c-1.601,2.461-3.37,4.84-5.261,7.15c-1.899,2.3-3.6,4.4-5.299,6.3
		l-4.201,4.899c-1.1,1.301-1.699,2.201-1.719,2.701c0,0.6,0.199,1.1,0.6,1.5c0.4,0.399,1.1,0.6,2,0.6c0.779,0,1.88-0.45,3.3-1.301
		c1.479-0.899,3.5-2.299,6.101-4.359c2.6-2.1,5.959-4.8,9.969-8.3c4-3.46,9-7.8,14.871-13.07L245.9,76.4z"/>
</g>
</svg>
