<?xml version="1.0" encoding="UTF-8" standalone="no"?>
<!-- Generator: Adobe Illustrator 21.1.0, SVG Export Plug-In . SVG Version: 6.00 Build 0)  -->

<svg
   xmlns:dc="http://purl.org/dc/elements/1.1/"
   xmlns:cc="http://creativecommons.org/ns#"
   xmlns:rdf="http://www.w3.org/1999/02/22-rdf-syntax-ns#"
   xmlns:svg="http://www.w3.org/2000/svg"
   xmlns="http://www.w3.org/2000/svg"
   xmlns:sodipodi="http://sodipodi.sourceforge.net/DTD/sodipodi-0.dtd"
   xmlns:inkscape="http://www.inkscape.org/namespaces/inkscape"
   version="1.1"
   id="Layer_1"
   x="0px"
   y="0px"
   viewBox="0 0 33.6 33.6"
   style="enable-background:new 0 0 33.6 33.6;"
   xml:space="preserve"
   sodipodi:docname="icon-reports.svg"
   inkscape:version="0.92.2 5c3e80d, 2017-08-06"><metadata
     id="metadata24"><rdf:RDF><cc:Work
         rdf:about=""><dc:format>image/svg+xml</dc:format><dc:type
           rdf:resource="http://purl.org/dc/dcmitype/StillImage" /></cc:Work></rdf:RDF></metadata><defs
     id="defs22" /><sodipodi:namedview
     pagecolor="#ffffff"
     bordercolor="#666666"
     borderopacity="1"
     objecttolerance="10"
     gridtolerance="10"
     guidetolerance="10"
     inkscape:pageopacity="0"
     inkscape:pageshadow="2"
     inkscape:window-width="774"
     inkscape:window-height="480"
     id="namedview20"
     showgrid="false"
     inkscape:zoom="7.0238098"
     inkscape:cx="16.799999"
     inkscape:cy="16.799999"
     inkscape:window-x="101"
     inkscape:window-y="0"
     inkscape:window-maximized="0"
     inkscape:current-layer="Layer_1" /><style
     type="text/css"
     id="style2">
	.st0{filter:url(#Adobe_OpacityMaskFilter);}
	.st1{fill:#FFFFFF;}
	.st2{mask:url(#page-1-copy-8-b_1_);}
</style><g
     id="g17"
     style="fill:#ffffff;fill-opacity:1"><defs
       id="defs7"><filter
         id="Adobe_OpacityMaskFilter"
         filterUnits="userSpaceOnUse"
         x="5.8"
         y="2.1"
         width="22"
         height="27.5"><feColorMatrix
           type="matrix"
           values="1 0 0 0 0  0 1 0 0 0  0 0 1 0 0  0 0 0 1 0"
           id="feColorMatrix4" /></filter></defs><mask
       maskUnits="userSpaceOnUse"
       x="5.8"
       y="2.1"
       width="22"
       height="27.5"
       id="page-1-copy-8-b_1_"><g
         class="st0"
         id="g10"><polygon
           id="page-1-copy-8-a_1_"
           class="st1"
           points="16.8,29.6 27.8,29.6 27.8,2.1 16.8,2.1 5.8,2.1 5.8,29.6    " /></g></mask><path
       class="st2"
       d="M25.1,23.6c0,0.6-0.3,1-0.6,1h-3.2c-0.3,0-0.6-0.4-0.6-1V9.5c0-0.6,0.3-1,0.6-1h3.2c0.3,0,0.6,0.5,0.6,1V23.6z    M19,24c0,0.4-0.3,0.6-0.6,0.6h-3.2c-0.3,0-0.6-0.3-0.6-0.6V12.8c0-0.4,0.3-0.6,0.6-0.6h3.2c0.3,0,0.6,0.3,0.6,0.6V24z M12.9,24.3   c0,0.2-0.3,0.4-0.6,0.4H9.1c-0.3,0-0.6-0.2-0.6-0.4v-8.1c0-0.2,0.3-0.4,0.6-0.4h3.2c0.3,0,0.6,0.2,0.6,0.4V24.3z M27.2,2.1H13.7   c0.1,0.2,0.1,0.4,0.1,0.6v5.7c0,0.9-0.8,1.7-1.7,1.7H6.4c-0.2,0-0.4,0-0.6-0.1v19c0,0.3,0.3,0.6,0.6,0.6h20.8   c0.3,0,0.6-0.3,0.6-0.6V2.7C27.8,2.4,27.6,2.1,27.2,2.1L27.2,2.1z"
       mask="url(#page-1-copy-8-b_1_)"
       id="path13"
       style="fill:#9e0a0f;fill-opacity:1" /><path
       d="M6.4,9h5.7c0.3,0,0.6-0.3,0.6-0.6V2.7c0-0.2-0.1-0.4-0.3-0.5c-0.2-0.1-0.5,0-0.6,0.1L6,8C5.8,8.1,5.8,8.4,5.9,8.6   C6,8.8,6.2,9,6.4,9"
       id="path15"
       style="fill:#9e0a0f;fill-opacity:1" /></g></svg>