<?xml version="1.0" encoding="UTF-8" standalone="no"?>
<!-- Generator: Adobe Illustrator 21.1.0, SVG Export Plug-In . SVG Version: 6.00 Build 0)  -->

<svg
   xmlns:dc="http://purl.org/dc/elements/1.1/"
   xmlns:cc="http://creativecommons.org/ns#"
   xmlns:rdf="http://www.w3.org/1999/02/22-rdf-syntax-ns#"
   xmlns:svg="http://www.w3.org/2000/svg"
   xmlns="http://www.w3.org/2000/svg"
   xmlns:sodipodi="http://sodipodi.sourceforge.net/DTD/sodipodi-0.dtd"
   xmlns:inkscape="http://www.inkscape.org/namespaces/inkscape"
   version="1.1"
   id="Layer_1"
   x="0px"
   y="0px"
   viewBox="0 0 33.6 33.6"
   style="enable-background:new 0 0 33.6 33.6;"
   xml:space="preserve"
   sodipodi:docname="icon-coaches-nav.svg"
   inkscape:version="0.92.2 5c3e80d, 2017-08-06"><metadata
     id="metadata9"><rdf:RDF><cc:Work
         rdf:about=""><dc:format>image/svg+xml</dc:format><dc:type
           rdf:resource="http://purl.org/dc/dcmitype/StillImage" /></cc:Work></rdf:RDF></metadata><defs
     id="defs7" /><sodipodi:namedview
     pagecolor="#ffffff"
     bordercolor="#666666"
     borderopacity="1"
     objecttolerance="10"
     gridtolerance="10"
     guidetolerance="10"
     inkscape:pageopacity="0"
     inkscape:pageshadow="2"
     inkscape:window-width="774"
     inkscape:window-height="480"
     id="namedview5"
     showgrid="false"
     inkscape:zoom="7.0238098"
     inkscape:cx="16.799999"
     inkscape:cy="16.799999"
     inkscape:window-x="435"
     inkscape:window-y="11"
     inkscape:window-maximized="0"
     inkscape:current-layer="Layer_1" /><path
     d="M30.7,11.4c1-1,1-2.6,0-3.7c-1-1-2.6-1-3.7,0c-0.3,0.3-0.5,0.7-0.7,1.1c-1.5-0.9-3.2-1.4-5-1.4c-2.5,0-4.8,1-6.6,2.7l0,0  c-0.1,0.1-0.7,0.8-2,2l-0.5,0.6l1.3,1.3l-0.3,0.3l-2-0.5L11,14.1c-3.9,3.9-8.3,9-8.4,9.1l-0.4,0.5l2.9,3.9l8.8-5.4  c0.3,0.4,0.6,0.8,1,1.2c3.6,3.6,9.5,3.6,13.2,0c3-3,3.5-7.7,1.5-11.2C30,12,30.4,11.8,30.7,11.4z M28.2,8.9c0.2-0.2,0.5-0.3,0.7-0.3  s0.5,0.1,0.7,0.3c0.4,0.4,0.4,1,0,1.4c-0.4,0.4-1,0.4-1.4,0C27.8,9.9,27.8,9.3,28.2,8.9z M21.4,22.4c-0.6,0-1.3-0.1-1.9-0.3l0.5-1.5  c1.5,0.5,3.2,0.2,4.3-1c1-1,1.4-2.4,1.1-3.8l1.5-0.3c0.4,1.9-0.1,3.9-1.5,5.3C24.4,21.8,22.9,22.4,21.4,22.4z"
     id="path2"
     style="fill:#ffffff;fill-opacity:1" /></svg>