<?xml version="1.0" encoding="UTF-8" standalone="no"?>
<!-- Generator: Adobe Illustrator 21.1.0, SVG Export Plug-In . SVG Version: 6.00 Build 0)  -->

<svg
   xmlns:dc="http://purl.org/dc/elements/1.1/"
   xmlns:cc="http://creativecommons.org/ns#"
   xmlns:rdf="http://www.w3.org/1999/02/22-rdf-syntax-ns#"
   xmlns:svg="http://www.w3.org/2000/svg"
   xmlns="http://www.w3.org/2000/svg"
   xmlns:xlink="http://www.w3.org/1999/xlink"
   xmlns:sodipodi="http://sodipodi.sourceforge.net/DTD/sodipodi-0.dtd"
   xmlns:inkscape="http://www.inkscape.org/namespaces/inkscape"
   version="1.1"
   id="Layer_2"
   x="0px"
   y="0px"
   viewBox="0 0 512 512"
   style="enable-background:new 0 0 512 512;"
   xml:space="preserve"
   sodipodi:docname="icon-players-nav.svg"
   inkscape:version="0.92.2 5c3e80d, 2017-08-06"><metadata
     id="metadata83"><rdf:RDF><cc:Work
         rdf:about=""><dc:format>image/svg+xml</dc:format><dc:type
           rdf:resource="http://purl.org/dc/dcmitype/StillImage" /></cc:Work></rdf:RDF></metadata><defs
     id="defs81" /><sodipodi:namedview
     pagecolor="#ffffff"
     bordercolor="#666666"
     borderopacity="1"
     objecttolerance="10"
     gridtolerance="10"
     guidetolerance="10"
     inkscape:pageopacity="0"
     inkscape:pageshadow="2"
     inkscape:window-width="774"
     inkscape:window-height="480"
     id="namedview79"
     showgrid="false"
     inkscape:zoom="0.4609375"
     inkscape:cx="256"
     inkscape:cy="256"
     inkscape:window-x="183"
     inkscape:window-y="1"
     inkscape:window-maximized="0"
     inkscape:current-layer="Layer_2" /><style
     type="text/css"
     id="style2">
	.st0{clip-path:url(#SVGID_2_);fill:#231F20;}
	.st1{clip-path:url(#SVGID_4_);fill:#231F20;}
	.st2{clip-path:url(#SVGID_6_);fill:#231F20;}
	.st3{clip-path:url(#SVGID_8_);fill:#231F20;}
	.st4{clip-path:url(#SVGID_10_);fill:#231F20;}
	.st5{clip-path:url(#SVGID_12_);fill:#231F20;}
</style><g
     id="g76"
     style="fill:#ffffff;fill-opacity:1"><g
       id="g14"
       style="fill:#ffffff;fill-opacity:1"><defs
         id="defs5"><path
           id="SVGID_1_"
           d="M314.4,133.1c0,32.2-26.1,58.3-58.3,58.3c-32.2,0-58.3-26.1-58.3-58.3s26.1-58.3,58.3-58.3     C288.3,74.8,314.4,100.9,314.4,133.1" /></defs><use
         xlink:href="#SVGID_1_"
         style="overflow:visible;fill-rule:evenodd;clip-rule:evenodd;fill:#ffffff;fill-opacity:1"
         id="use7" /><clipPath
         id="SVGID_2_"><use
           xlink:href="#SVGID_1_"
           style="overflow:visible;"
           id="use9" /></clipPath><rect
         x="122.7"
         y="-0.2"
         class="st0"
         width="266.7"
         height="266.7"
         clip-path="url(#SVGID_2_)"
         id="rect12"
         style="fill:#ffffff;fill-opacity:1" /></g><g
       id="g26"
       style="fill:#ffffff;fill-opacity:1"><defs
         id="defs17"><path
           id="SVGID_3_"
           d="M447.2,256.1c0,32.2-26.1,58.3-58.3,58.3s-58.3-26.1-58.3-58.3c0-32.2,26.1-58.3,58.3-58.3     S447.2,223.8,447.2,256.1" /></defs><use
         xlink:href="#SVGID_3_"
         style="overflow:visible;fill-rule:evenodd;clip-rule:evenodd;fill:#ffffff;fill-opacity:1"
         id="use19" /><clipPath
         id="SVGID_4_"><use
           xlink:href="#SVGID_3_"
           style="overflow:visible;"
           id="use21" /></clipPath><rect
         x="255.6"
         y="122.7"
         class="st1"
         width="266.7"
         height="266.7"
         clip-path="url(#SVGID_4_)"
         id="rect24"
         style="fill:#ffffff;fill-opacity:1" /></g><g
       id="g38"
       style="fill:#ffffff;fill-opacity:1"><defs
         id="defs29"><path
           id="SVGID_5_"
           d="M336,310.9c13.4,13.7,32.1,22.3,52.8,22.3c20.3,0,38.7-8.2,52-21.6c0,0,59.1,12.5,59.1,69.5v49.9h-225     v-52.7C274.8,378.3,268.6,333.9,336,310.9" /></defs><use
         xlink:href="#SVGID_5_"
         style="overflow:visible;fill-rule:evenodd;clip-rule:evenodd;fill:#ffffff;fill-opacity:1"
         id="use31" /><clipPath
         id="SVGID_6_"><use
           xlink:href="#SVGID_5_"
           style="overflow:visible;"
           id="use33" /></clipPath><rect
         x="199.6"
         y="235.9"
         class="st2"
         width="375.2"
         height="270.1"
         clip-path="url(#SVGID_6_)"
         id="rect36"
         style="fill:#ffffff;fill-opacity:1" /></g><g
       id="g50"
       style="fill:#ffffff;fill-opacity:1"><defs
         id="defs41"><path
           id="SVGID_7_"
           d="M182.6,256.1c0,32.2-26.1,58.3-58.3,58.3c-32.2,0-58.3-26.1-58.3-58.3c0-32.2,26.1-58.3,58.3-58.3     C156.5,197.7,182.6,223.8,182.6,256.1" /></defs><use
         xlink:href="#SVGID_7_"
         style="overflow:visible;fill-rule:evenodd;clip-rule:evenodd;fill:#ffffff;fill-opacity:1"
         id="use43" /><clipPath
         id="SVGID_8_"><use
           xlink:href="#SVGID_7_"
           style="overflow:visible;"
           id="use45" /></clipPath><rect
         x="-9"
         y="122.7"
         class="st3"
         width="266.7"
         height="266.7"
         clip-path="url(#SVGID_8_)"
         id="rect48"
         style="fill:#ffffff;fill-opacity:1" /></g><g
       id="g62"
       style="fill:#ffffff;fill-opacity:1"><defs
         id="defs53"><path
           id="SVGID_9_"
           d="M72.4,310.9c13.4,13.7,32.1,22.3,52.7,22.3c20.3,0,38.7-8.2,52.1-21.6c0,0,59.1,12.5,59.1,69.5v49.9h-225     v-52.7C11.3,378.3,5,333.9,72.4,310.9" /></defs><use
         xlink:href="#SVGID_9_"
         style="overflow:visible;fill-rule:evenodd;clip-rule:evenodd;fill:#ffffff;fill-opacity:1"
         id="use55" /><clipPath
         id="SVGID_10_"><use
           xlink:href="#SVGID_9_"
           style="overflow:visible;"
           id="use57" /></clipPath><rect
         x="-63.9"
         y="235.9"
         class="st4"
         width="375.2"
         height="270.1"
         clip-path="url(#SVGID_10_)"
         id="rect60"
         style="fill:#ffffff;fill-opacity:1" /></g><g
       id="g74"
       style="fill:#ffffff;fill-opacity:1"><defs
         id="defs65"><path
           id="SVGID_11_"
           d="M255.8,365.7c8.4-33.8,35-60.3,68.6-68.3l-1.1-1.8c-7-11.5-10.7-25.1-10.7-39.6     c0-21.4,8.7-40.7,22.8-54.6c-15.8-6.5-25.2-9.6-25.2-9.6c-14.3,13-33.3,20.8-54.1,20.8h-1c-20.8,0-39.8-7.9-54.1-20.8     c0,0-9.4,3.1-25.2,9.6c14.1,13.9,22.8,33.2,22.8,54.6c0,14.5-3.7,28-10.7,39.6l-1.1,1.8C220.3,305.4,247.3,331.9,255.8,365.7" /></defs><use
         xlink:href="#SVGID_11_"
         style="overflow:visible;fill-rule:evenodd;clip-rule:evenodd;fill:#ffffff;fill-opacity:1"
         id="use67" /><clipPath
         id="SVGID_12_"><use
           xlink:href="#SVGID_11_"
           style="overflow:visible;"
           id="use69" /></clipPath><rect
         x="100.7"
         y="116.8"
         class="st5"
         width="309.8"
         height="323.9"
         clip-path="url(#SVGID_12_)"
         id="rect72"
         style="fill:#ffffff;fill-opacity:1" /></g></g></svg>