<?xml version="1.0" encoding="UTF-8" standalone="no"?>
<!-- Generator: Adobe Illustrator 21.1.0, SVG Export Plug-In . SVG Version: 6.00 Build 0)  -->

<svg
   xmlns:dc="http://purl.org/dc/elements/1.1/"
   xmlns:cc="http://creativecommons.org/ns#"
   xmlns:rdf="http://www.w3.org/1999/02/22-rdf-syntax-ns#"
   xmlns:svg="http://www.w3.org/2000/svg"
   xmlns="http://www.w3.org/2000/svg"
   xmlns:sodipodi="http://sodipodi.sourceforge.net/DTD/sodipodi-0.dtd"
   xmlns:inkscape="http://www.inkscape.org/namespaces/inkscape"
   version="1.1"
   id="Layer_2"
   x="0px"
   y="0px"
   viewBox="0 0 512 512"
   style="enable-background:new 0 0 512 512;"
   xml:space="preserve"
   sodipodi:docname="icon-home-nav.svg"
   inkscape:version="0.92.2 5c3e80d, 2017-08-06"><metadata
     id="metadata39"><rdf:RDF><cc:Work
         rdf:about=""><dc:format>image/svg+xml</dc:format><dc:type
           rdf:resource="http://purl.org/dc/dcmitype/StillImage" /></cc:Work></rdf:RDF></metadata><defs
     id="defs37" /><sodipodi:namedview
     pagecolor="#ffffff"
     bordercolor="#666666"
     borderopacity="1"
     objecttolerance="10"
     gridtolerance="10"
     guidetolerance="10"
     inkscape:pageopacity="0"
     inkscape:pageshadow="2"
     inkscape:window-width="1122"
     inkscape:window-height="787"
     id="namedview35"
     showgrid="false"
     inkscape:zoom="0.4609375"
     inkscape:cx="218.0339"
     inkscape:cy="256"
     inkscape:window-x="562"
     inkscape:window-y="42"
     inkscape:window-maximized="0"
     inkscape:current-layer="Layer_2" /><style
     type="text/css"
     id="style2">
	.st0{filter:url(#Adobe_OpacityMaskFilter);}
	.st1{fill:#FFFFFF;}
	.st2{mask:url(#page-1-b_1_);fill:#231F20;}
	.st3{filter:url(#Adobe_OpacityMaskFilter_1_);}
	.st4{mask:url(#page-1-d_1_);fill:#231F20;}
	.st5{fill:#231F20;}
</style><g
     id="g32"
     style="fill:#ffffff;fill-opacity:0.8142857"><g
       transform="translate(20)"
       id="g15"
       style="fill:#ffffff;fill-opacity:0.8142857"><defs
         id="defs7"><filter
           id="Adobe_OpacityMaskFilter"
           filterUnits="userSpaceOnUse"
           x="300.4"
           y="81.6"
           width="110.8"
           height="110.8"><feColorMatrix
             type="matrix"
             values="1 0 0 0 0  0 1 0 0 0  0 0 1 0 0  0 0 0 1 0"
             id="feColorMatrix4" /></filter></defs><mask
         maskUnits="userSpaceOnUse"
         x="300.4"
         y="81.6"
         width="110.8"
         height="110.8"
         id="page-1-b_1_"><g
           class="st0"
           id="g10"><polygon
             id="page-1-a_1_"
             class="st1"
             points="300.4,81.6 411.3,81.6 411.3,192.5 300.4,192.5     " /></g></mask><path
         class="st2"
         d="M359.4,133.6c22.4,22.4,38.2,43.5,48.4,58.9c6.8-48.8,3.2-88.7-5.3-101.5l-1.6,1.1l1.1-1.6    c-12.8-8.5-52.7-12.1-101.5-5.3C315.8,95.4,337,111.2,359.4,133.6"
         mask="url(#page-1-b_1_)"
         id="path13"
         style="fill:#ffffff;fill-opacity:0.8142857" /></g><g
       transform="translate(0 20)"
       id="g28"
       style="fill:#ffffff;fill-opacity:0.8142857"><defs
         id="defs20"><filter
           id="Adobe_OpacityMaskFilter_1_"
           filterUnits="userSpaceOnUse"
           x="67.4"
           y="312.9"
           width="112.7"
           height="112.7"><feColorMatrix
             type="matrix"
             values="1 0 0 0 0  0 1 0 0 0  0 0 1 0 0  0 0 0 1 0"
             id="feColorMatrix17" /></filter></defs><mask
         maskUnits="userSpaceOnUse"
         x="67.4"
         y="312.9"
         width="112.7"
         height="112.7"
         id="page-1-d_1_"><g
           class="st3"
           id="g23"><polygon
             id="page-1-c_1_"
             class="st1"
             points="180.1,425.6 67.4,425.6 67.4,312.9 180.1,312.9     " /></g></mask><path
         class="st4"
         d="M120.2,372.8C97.4,350,81.3,328.5,71,312.9c-6.9,49.6-3.3,90.2,5.4,103.2L78,415l-1.1,1.6    c13,8.6,53.6,12.3,103.2,5.4C164.4,411.6,142.9,395.5,120.2,372.8"
         mask="url(#page-1-d_1_)"
         id="path26"
         style="fill:#ffffff;fill-opacity:0.8142857" /></g><path
       class="st5"
       d="M335.2,228.3c-3.9,3.9-10.7,4.1-15.1,0.3c-3.7-3.3-7.4-6.7-11-10.2L295.4,232c3.5,3.6,6.9,7.3,10.2,11   c3.8,4.4,3.6,11.2-0.3,15.1c0,0-0.1,0.1-0.1,0.1c-3.9,3.9-10.7,4.1-15.1,0.3c-3.7-3.3-7.4-6.7-11-10.2L265.5,262   c3.5,3.6,6.9,7.3,10.2,11c3.8,4.4,3.6,11.2-0.3,15.1c0,0-0.1,0.1-0.1,0.1c-3.9,3.9-10.7,4.1-15.1,0.3c-3.7-3.3-7.4-6.8-11-10.2   l-13.6,13.6c3.5,3.6,6.9,7.3,10.2,11c3.8,4.4,3.6,11.2-0.3,15.1c0,0-0.1,0.1-0.1,0.1c-3.9,3.9-10.7,4.1-15.1,0.3   c-3.7-3.3-7.4-6.7-11-10.2l-13.6,13.6c3.5,3.6,6.9,7.3,10.2,11c3.8,4.4,3.6,11.2-0.3,15.1c0,0-0.1,0.1-0.1,0.1   c-3.9,3.9-10.7,4.1-15.1,0.3c-3.7-3.3-7.4-6.8-11-10.2l-10.2,10.1c-4,4-10.4,4-14.4,0l-0.1-0.1c-4-4-4-10.4,0-14.4l10.1-10.2   c-3.5-3.6-6.9-7.3-10.2-11c-3.8-4.4-3.6-11.2,0.3-15.1c0,0,0.1-0.1,0.1-0.1c3.9-3.9,10.7-4.1,15.1-0.3c3.7,3.3,7.4,6.8,11,10.2   l13.6-13.6c-3.5-3.6-6.9-7.3-10.2-11c-3.8-4.4-3.6-11.2,0.3-15.1l0.1-0.1c3.9-3.9,10.7-4.1,15.1-0.3c3.7,3.3,7.4,6.7,11,10.2   l13.6-13.6c-3.5-3.6-6.9-7.3-10.2-11c-3.8-4.4-3.6-11.2,0.3-15.1l0.1-0.1c3.9-3.9,10.7-4.1,15.1-0.3c3.7,3.3,7.4,6.7,11,10.2   l13.6-13.6c-3.5-3.6-6.9-7.3-10.2-11c-3.8-4.4-3.6-11.2,0.3-15.1c0,0,0.1-0.1,0.1-0.1c3.9-3.9,10.7-4.1,15.1-0.3   c3.7,3.3,7.4,6.7,11,10.2l13.6-13.6c-3.5-3.6-6.9-7.3-10.2-11c-3.8-4.4-3.6-11.2,0.3-15.1l0.1-0.1c3.9-3.9,10.7-4.1,15.1-0.3   c3.7,3.3,7.4,6.7,11,10.2l10.2-10.2c4-4,10.4-4,14.4,0l0.1,0.1c4,4,4,10.4,0,14.4l-10.2,10.2c3.5,3.6,6.9,7.3,10.2,11   c3.8,4.4,3.6,11.2-0.3,15.1C335.2,228.2,335.2,228.3,335.2,228.3 M400,283.4c8.2-17.6,14.9-36.3,20.1-55.8c0,0-18.3-36.3-58.4-76.4   c-40.1-40.1-76.4-58.4-76.4-58.4c-19.5,5.2-38.2,12-55.8,20.1c-30,13.9-55.9,31.6-76.8,52.6c-21,21-38.7,46.8-52.6,76.8   c-8.2,17.6-14.9,36.3-20.1,55.8c0,0,18.3,36.3,58.4,76.4c40.1,40.1,76.4,58.4,76.4,58.4c19.5-5.2,38.2-12,55.8-20.1   c30-13.9,55.9-31.6,76.8-52.6C368.4,339.3,386.1,313.4,400,283.4"
       id="path30"
       style="fill:#ffffff;fill-opacity:0.8142857" /></g></svg>