<?xml version="1.0" encoding="UTF-8" standalone="no"?>
<!-- Generator: Adobe Illustrator 21.1.0, SVG Export Plug-In . SVG Version: 6.00 Build 0)  -->

<svg
   xmlns:dc="http://purl.org/dc/elements/1.1/"
   xmlns:cc="http://creativecommons.org/ns#"
   xmlns:rdf="http://www.w3.org/1999/02/22-rdf-syntax-ns#"
   xmlns:svg="http://www.w3.org/2000/svg"
   xmlns="http://www.w3.org/2000/svg"
   xmlns:xlink="http://www.w3.org/1999/xlink"
   xmlns:sodipodi="http://sodipodi.sourceforge.net/DTD/sodipodi-0.dtd"
   xmlns:inkscape="http://www.inkscape.org/namespaces/inkscape"
   version="1.1"
   id="Layer_2"
   x="0px"
   y="0px"
   viewBox="0 0 512 512"
   style="enable-background:new 0 0 512 512;"
   xml:space="preserve"
   sodipodi:docname="icon-dashboard-nav.svg"
   inkscape:version="0.92.2 5c3e80d, 2017-08-06"><metadata
     id="metadata161"><rdf:RDF><cc:Work
         rdf:about=""><dc:format>image/svg+xml</dc:format><dc:type
           rdf:resource="http://purl.org/dc/dcmitype/StillImage" /></cc:Work></rdf:RDF></metadata><defs
     id="defs159" /><sodipodi:namedview
     pagecolor="#ffffff"
     bordercolor="#666666"
     borderopacity="1"
     objecttolerance="10"
     gridtolerance="10"
     guidetolerance="10"
     inkscape:pageopacity="0"
     inkscape:pageshadow="2"
     inkscape:window-width="774"
     inkscape:window-height="480"
     id="namedview157"
     showgrid="false"
     inkscape:zoom="0.4609375"
     inkscape:cx="256"
     inkscape:cy="256"
     inkscape:window-x="525"
     inkscape:window-y="0"
     inkscape:window-maximized="0"
     inkscape:current-layer="Layer_2" /><style
     type="text/css"
     id="style2">
	.st0{clip-path:url(#SVGID_2_);}
	.st1{clip-path:url(#SVGID_4_);fill:#231F20;}
	.st2{clip-path:url(#SVGID_6_);}
	.st3{clip-path:url(#SVGID_8_);fill:#231F20;}
	.st4{clip-path:url(#SVGID_10_);}
	.st5{clip-path:url(#SVGID_12_);fill:#231F20;}
	.st6{clip-path:url(#SVGID_14_);}
	.st7{clip-path:url(#SVGID_16_);fill:#231F20;}
	.st8{clip-path:url(#SVGID_18_);}
	.st9{clip-path:url(#SVGID_20_);fill:#231F20;}
	.st10{clip-path:url(#SVGID_22_);}
	.st11{clip-path:url(#SVGID_24_);fill:#231F20;}
	.st12{clip-path:url(#SVGID_26_);}
	.st13{clip-path:url(#SVGID_28_);enable-background:new    ;}
	.st14{clip-path:url(#SVGID_30_);}
	.st15{clip-path:url(#SVGID_32_);}
	.st16{clip-path:url(#SVGID_34_);fill:#231F20;}
</style><g
     id="g20"
     style="fill:#ffffff;fill-opacity:1"><defs
       id="defs5"><path
         id="SVGID_1_"
         d="M151.8,214.2c0.1-1.6-0.4-3.1-1.5-4.3L103,156c-1-1.2-2.5-1.9-4.1-2c-1.6-0.1-3.1,0.4-4.3,1.5    c-21.8,19.1-39.8,41.7-53.7,67.1c-0.8,1.4-0.9,3-0.5,4.5c0.4,1.5,1.5,2.8,2.9,3.6l63,34.4c0.9,0.5,1.9,0.7,2.9,0.7    c2.1,0,4.2-1.1,5.2-3.1c9.2-16.8,21.1-31.7,35.5-44.3C151,217.2,151.7,215.8,151.8,214.2" /></defs><clipPath
       id="SVGID_2_"><use
         xlink:href="#SVGID_1_"
         style="overflow:visible;"
         id="use7" /></clipPath><g
       class="st0"
       clip-path="url(#SVGID_2_)"
       id="g18"
       style="fill:#ffffff;fill-opacity:1"><defs
         id="defs11"><rect
           id="SVGID_3_"
           x="-981.5"
           y="-7663.6"
           width="18825.2"
           height="11714.1" /></defs><clipPath
         id="SVGID_4_"><use
           xlink:href="#SVGID_3_"
           style="overflow:visible;"
           id="use13" /></clipPath><rect
         x="-28.8"
         y="85"
         class="st1"
         width="249.5"
         height="249.6"
         clip-path="url(#SVGID_4_)"
         id="rect16"
         style="fill:#ffffff;fill-opacity:1" /></g></g><g
     id="g38"
     style="fill:#ffffff;fill-opacity:1"><defs
       id="defs23"><path
         id="SVGID_5_"
         d="M172.9,194.2c1.1,2,3.1,3.2,5.3,3.2c0.9,0,1.9-0.2,2.8-0.7c16.9-8.9,35-14.8,54-17.4    c3.3-0.4,5.6-3.5,5.1-6.7l-9.6-71.1c-0.4-3.3-3.5-5.6-6.7-5.1c-28.7,3.9-56.3,12.8-81.9,26.4c-2.9,1.5-4,5.2-2.5,8.1L172.9,194.2z    " /></defs><clipPath
       id="SVGID_6_"><use
         xlink:href="#SVGID_5_"
         style="overflow:visible;"
         id="use25" /></clipPath><g
       class="st2"
       clip-path="url(#SVGID_6_)"
       id="g36"
       style="fill:#ffffff;fill-opacity:1"><defs
         id="defs29"><rect
           id="SVGID_7_"
           x="-981.5"
           y="-7663.6"
           width="18825.2"
           height="11714.1" /></defs><clipPath
         id="SVGID_8_"><use
           xlink:href="#SVGID_7_"
           style="overflow:visible;"
           id="use31" /></clipPath><rect
         x="69.7"
         y="27.4"
         class="st3"
         width="239.3"
         height="238.9"
         clip-path="url(#SVGID_8_)"
         id="rect34"
         style="fill:#ffffff;fill-opacity:1" /></g></g><g
     id="g56"
     style="fill:#ffffff;fill-opacity:1"><defs
       id="defs41"><path
         id="SVGID_9_"
         d="M95.9,290.4l-69.2-18.8c-1.5-0.4-3.2-0.2-4.5,0.6c-1.4,0.8-2.4,2.1-2.8,3.6c-5.7,21-8.6,42.7-8.6,64.6    c0,3.8,0.1,7.5,0.3,11.5c0.1,3.2,2.8,5.7,6,5.7c0.1,0,0.2,0,0.3,0l71.7-3.3c1.6-0.1,3.1-0.8,4.1-1.9c1.1-1.2,1.6-2.7,1.6-4.3    c-0.1-2.7-0.2-5.2-0.2-7.6c0-14.5,1.9-28.9,5.7-42.7C101,294.6,99.1,291.3,95.9,290.4" /></defs><clipPath
       id="SVGID_10_"><use
         xlink:href="#SVGID_9_"
         style="overflow:visible;"
         id="use43" /></clipPath><g
       class="st4"
       clip-path="url(#SVGID_10_)"
       id="g54"
       style="fill:#ffffff;fill-opacity:1"><defs
         id="defs47"><rect
           id="SVGID_11_"
           x="-981.5"
           y="-7663.6"
           width="18825.2"
           height="11714.1" /></defs><clipPath
         id="SVGID_12_"><use
           xlink:href="#SVGID_11_"
           style="overflow:visible;"
           id="use49" /></clipPath><rect
         x="-58.1"
         y="202.5"
         class="st5"
         width="227.4"
         height="224.1"
         clip-path="url(#SVGID_12_)"
         id="rect52"
         style="fill:#ffffff;fill-opacity:1" /></g></g><g
     id="g74"
     style="fill:#ffffff;fill-opacity:1"><defs
       id="defs59"><path
         id="SVGID_13_"
         d="M364,118.5c-26.1-12.6-54-20.4-82.9-23.2c-1.6-0.2-3.2,0.3-4.4,1.3c-1.2,1-2,2.5-2.2,4l-6.9,71.4    c-0.3,3.3,2.1,6.2,5.4,6.5c19,1.8,37.4,7,54.6,15.3c0.8,0.4,1.7,0.6,2.6,0.6c0.7,0,1.3-0.1,2-0.3c1.5-0.5,2.7-1.6,3.4-3l31.2-64.6    C368.2,123.5,366.9,119.9,364,118.5" /></defs><clipPath
       id="SVGID_14_"><use
         xlink:href="#SVGID_13_"
         style="overflow:visible;"
         id="use61" /></clipPath><g
       class="st6"
       clip-path="url(#SVGID_14_)"
       id="g72"
       style="fill:#ffffff;fill-opacity:1"><defs
         id="defs65"><rect
           id="SVGID_15_"
           x="-981.5"
           y="-7663.6"
           width="18825.2"
           height="11714.1" /></defs><clipPath
         id="SVGID_16_"><use
           xlink:href="#SVGID_15_"
           style="overflow:visible;"
           id="use67" /></clipPath><rect
         x="198.7"
         y="26.4"
         class="st7"
         width="237.5"
         height="237"
         clip-path="url(#SVGID_16_)"
         id="rect70"
         style="fill:#ffffff;fill-opacity:1" /></g></g><g
     id="g92"
     style="fill:#ffffff;fill-opacity:1"><defs
       id="defs77"><path
         id="SVGID_17_"
         d="M469.3,218.8c0.4-1.5,0.1-3.2-0.7-4.5c-14.8-24.8-33.8-46.7-56.2-65c-1.2-1-2.8-1.5-4.4-1.3    c-1.6,0.2-3,0.9-4,2.2l-45.3,55.7c-1,1.2-1.5,2.8-1.3,4.4c0.2,1.6,0.9,3,2.2,4c14.9,12.1,27.4,26.5,37.2,43    c1.1,1.9,3.1,2.9,5.1,2.9c1,0,2.1-0.3,3.1-0.8l61.6-36.8C468,221.6,469,220.3,469.3,218.8" /></defs><clipPath
       id="SVGID_18_"><use
         xlink:href="#SVGID_17_"
         style="overflow:visible;"
         id="use79" /></clipPath><g
       class="st8"
       clip-path="url(#SVGID_18_)"
       id="g90"
       style="fill:#ffffff;fill-opacity:1"><defs
         id="defs83"><rect
           id="SVGID_19_"
           x="-981.5"
           y="-7663.6"
           width="18825.2"
           height="11714.1" /></defs><clipPath
         id="SVGID_20_"><use
           xlink:href="#SVGID_19_"
           style="overflow:visible;"
           id="use85" /></clipPath><rect
         x="288.5"
         y="79.1"
         class="st9"
         width="249.9"
         height="250"
         clip-path="url(#SVGID_20_)"
         id="rect88"
         style="fill:#ffffff;fill-opacity:1" /></g></g><g
     id="g110"
     style="fill:#ffffff;fill-opacity:1"><defs
       id="defs95"><path
         id="SVGID_21_"
         d="M492.2,266.8c-1-3.2-4.3-4.9-7.5-3.9l-68.5,21.5c-3.2,1-4.9,4.3-3.9,7.5c4.9,15.7,7.4,32.1,7.4,48.7    c0,2.4-0.1,4.9-0.2,7.6c-0.1,1.6,0.5,3.1,1.6,4.3c1.1,1.2,2.6,1.9,4.1,1.9l71.7,3.3c0.1,0,0.2,0,0.3,0c3.2,0,5.8-2.5,6-5.7    c0.2-4,0.3-7.8,0.3-11.5C503.4,315.4,499.7,290.6,492.2,266.8" /></defs><clipPath
       id="SVGID_22_"><use
         xlink:href="#SVGID_21_"
         style="overflow:visible;"
         id="use97" /></clipPath><g
       class="st10"
       clip-path="url(#SVGID_22_)"
       id="g108"
       style="fill:#ffffff;fill-opacity:1"><defs
         id="defs101"><rect
           id="SVGID_23_"
           x="-981.5"
           y="-7663.6"
           width="18825.2"
           height="11714.1" /></defs><clipPath
         id="SVGID_24_"><use
           xlink:href="#SVGID_23_"
           style="overflow:visible;"
           id="use103" /></clipPath><rect
         x="343.1"
         y="193.7"
         class="st11"
         width="229.2"
         height="232.9"
         clip-path="url(#SVGID_24_)"
         id="rect106"
         style="fill:#ffffff;fill-opacity:1" /></g></g><g
     id="g154"><defs
       id="defs113"><rect
         id="SVGID_25_"
         x="147.4"
         y="269.7"
         width="165.6"
         height="170.2" /></defs><clipPath
       id="SVGID_26_"><use
         xlink:href="#SVGID_25_"
         style="display:none;overflow:visible;"
         id="use115" /></clipPath><g
       class="st12"
       clip-path="url(#SVGID_26_)"
       id="g152"><defs
         id="defs119"><rect
           id="SVGID_27_"
           x="-981.5"
           y="-7663.6"
           width="18825.2"
           height="11714.1" /></defs><clipPath
         id="SVGID_28_"><use
           xlink:href="#SVGID_27_"
           style="overflow:visible;"
           id="use121" /></clipPath><g
         class="st13"
         clip-path="url(#SVGID_28_)"
         id="g150"><g
           id="g148"><defs
             id="defs125"><rect
               id="SVGID_29_"
               x="134.8"
               y="260.7"
               width="179.2"
               height="192.9" /></defs><clipPath
             id="SVGID_30_"><use
               xlink:href="#SVGID_29_"
               style="overflow:visible;"
               id="use127" /></clipPath><g
             class="st14"
             clip-path="url(#SVGID_30_)"
             id="g146"><defs
               id="defs131"><path
                 id="SVGID_31_"
                 d="M256.9,327.8c-1,0-2.1,0-3.1,0.1l-97.1-57.3c-2.4-1.4-5.4-1.1-7.4,0.9c-2,1.9-2.5,4.9-1.2,7.3l53,99.3        c-0.2,1.9-0.3,3.8-0.3,5.8c0,15,5.8,29.1,16.4,39.7c10.6,10.6,24.7,16.4,39.7,16.4c15,0,29.1-5.8,39.7-16.4        c10.6-10.6,16.4-24.7,16.4-39.7c0-15-5.8-29.1-16.4-39.7C286,333.6,271.9,327.8,256.9,327.8" /></defs><clipPath
               id="SVGID_32_"><use
                 xlink:href="#SVGID_31_"
                 style="overflow:visible;"
                 id="use133" /></clipPath><g
               class="st15"
               clip-path="url(#SVGID_32_)"
               id="g144"><defs
                 id="defs137"><rect
                   id="SVGID_33_"
                   x="134.8"
                   y="260.7"
                   width="179.2"
                   height="179.2" /></defs><clipPath
                 id="SVGID_34_"><use
                   xlink:href="#SVGID_33_"
                   style="overflow:visible;"
                   id="use139" /></clipPath><rect
                 x="78.5"
                 y="200.8"
                 class="st16"
                 width="303.4"
                 height="308"
                 clip-path="url(#SVGID_34_)"
                 id="rect142" /></g></g></g></g></g></g></svg>