<?xml version="1.0" encoding="utf-8"?>
<!-- Generator: Adobe Illustrator 16.0.0, SVG Export Plug-In . SVG Version: 6.00 Build 0)  -->
<!DOCTYPE svg PUBLIC "-//W3C//DTD SVG 1.1//EN" "http://www.w3.org/Graphics/SVG/1.1/DTD/svg11.dtd">
<svg version="1.1" id="Layer_1" xmlns="http://www.w3.org/2000/svg" xmlns:xlink="http://www.w3.org/1999/xlink" x="0px" y="0px"
	 width="140.88px" height="143.71px" viewBox="0 0 140.88 143.71" enable-background="new 0 0 140.88 143.71" xml:space="preserve">
<g>
	<ellipse display="none" fill="#CADF84" cx="69.968" cy="139.283" rx="59.354" ry="7.125"/>
	<g>
		<path fill="#B8B8B8" d="M116.3,137.357c-1.69-2.703-5.332-4.935-9.634-4.935c-0.327,0-0.649,0.017-0.968,0.042l2.854-9.632
			l-5.366-1.591l-4.227,14.264c-0.5,0.572-0.87,1.198-1.071,1.852H116.3z"/>
		<path fill="#B8B8B8" d="M43.02,126.7l-5.368-1.585l-3.724,12.615c-1.224-0.445-2.603-0.707-4.062-0.707
			c-4.302,0-7.943,2.232-9.633,4.936h18.412c-0.021-0.064-0.049-0.127-0.072-0.191L43.02,126.7z"/>
		<g>
			<path fill="#FFFFFF" d="M94.696,64.552l17.704,4.943c1.315,0.368,2.084,1.732,1.718,3.047c-0.283,1.014-1.163,1.702-2.151,1.797
				l-18.3,1.728c-3.232,0.305-6.101-2.068-6.405-5.301s2.069-6.1,5.302-6.405C93.295,64.292,94.027,64.368,94.696,64.552z"/>
		</g>
		<path fill="#FFFFFF" d="M112.243,104.931l-0.623-0.461L92.731,90.457c-0.343-0.251-0.742-0.5-1.136-0.694
			c-3.309-1.63-7.237-0.552-9.298,2.37c-0.007-0.01-0.012-0.021-0.02-0.031c-2.377-3.316-6.993-4.08-10.312-1.702
			c-3.989,2.858-8.022,5.643-12.071,8.4c-4.029,2.794-8.132,5.457-12.195,8.191l-0.683,0.46c-0.433,0.294-0.802,0.695-1.063,1.191
			c-0.698,1.331-1.445,2.627-2.181,3.933l-2.217,3.909c-1.525,2.574-3.047,5.15-4.688,7.647c-1.299,1.98-0.776,4.647,1.19,5.985
			c1.987,1.35,4.693,0.834,6.042-1.151c1.68-2.472,3.478-4.864,5.272-7.259l2.765-3.543c0.585-0.748,1.17-1.493,1.762-2.236
			c4.117-2.119,8.204-4.288,12.357-6.346c4.372-2.21,8.759-4.394,13.19-6.503c0.375-0.182,0.777-0.415,1.128-0.665
			c0.688-0.494,1.26-1.089,1.724-1.744c0.688,0.972,1.619,1.79,2.761,2.352l17.938,8.84l-2.314,12.072
			c-0.404,2.149,0.86,4.328,3.001,4.984c2.3,0.705,4.735-0.587,5.441-2.887l4.852-15.822
			C114.553,108.315,113.923,106.177,112.243,104.931z"/>
		<g>
			<path fill="#B82025" d="M83.355,88.448c-2.083,2.61-2.698,5.929-2.646,9.143c0.037,3.247,0.599,6.503,0.937,9.88
				c0.33,3.362,0.514,6.956-0.52,10.616c-0.514,1.814-1.36,3.6-2.504,5.174c-1.139,1.58-2.545,2.937-4.052,4.091l-3.035-4.548
				c2.499-1.428,4.507-3.415,5.642-6.094c1.164-2.665,1.486-5.867,1.573-9.13c0.098-3.274-0.05-6.668,0.349-10.082
				c0.204-1.7,0.561-3.408,1.208-5.011c0.641-1.603,1.593-3.077,2.804-4.259L83.355,88.448z"/>
		</g>
		<g>
			<path fill="#B82025" d="M83.232,88.714c-1.152,2.48-1.475,5.208-0.898,7.744c0.549,2.556,1.776,4.928,2.945,7.445
				c1.163,2.506,2.349,5.268,2.608,8.446c0.132,1.574,0.01,3.211-0.358,4.778c-0.364,1.57-0.958,3.061-1.667,4.46l-4.67-2.844
				c1.393-1.912,2.346-4.005,2.513-6.342c0.196-2.337-0.381-4.878-1.141-7.481c-0.74-2.605-1.667-5.348-1.83-8.256
				c-0.078-1.446,0.057-2.912,0.444-4.289c0.383-1.381,1.007-2.66,1.766-3.823L83.232,88.714z"/>
		</g>
		<g>
			<g>
				<path fill="#FFFFFF" d="M96.233,87.155H67.667c-0.695,0-1.259-0.563-1.259-1.259V69.218c0-3.239,2.626-5.865,5.865-5.865h19.355
					c3.239,0,5.864,2.626,5.864,5.865v16.679C97.492,86.593,96.93,87.155,96.233,87.155z"/>
			</g>
			<g opacity="0.3">
				<path fill="#292929" d="M94.209,80.419l-19.98-4.5l1.182-1.371c0.454-0.528,0.836-1.164,1.085-1.859
					c1.094-3.057-0.498-6.423-3.556-7.518c-1.984-0.71-4.094-0.283-5.633,0.936c-0.566,0.902-0.899,1.967-0.899,3.111v12.8
					l27.053,2.382c1.198,0.933,2.319,0.139,2.592-1.066C96.348,82.02,95.522,80.716,94.209,80.419z"/>
			</g>
			<g>
				<path fill="#B82025" d="M94.792,92.742H69.107c-0.713,0-1.292-0.577-1.292-1.292v-4.295h28.269v4.295
					C96.084,92.165,95.507,92.742,94.792,92.742z"/>
			</g>
		</g>
		<g>
			<polygon fill="#C9C9C9" points="82.209,71.668 75.529,64.643 75.529,58.223 88.37,58.223 88.37,64.752 			"/>
		</g>
		<g>
			<g>
				<path fill="#FFFFFF" d="M83.467,64.312l-1.89,0.017C75.247,64.386,70.07,59.3,70.013,52.97l-0.122-13.54
					c-0.031-3.391,2.694-6.165,6.084-6.195l12.532-0.113c3.392-0.031,6.164,2.693,6.195,6.084l0.122,13.54
					C94.882,59.077,89.797,64.255,83.467,64.312z"/>
			</g>
			<g>
				
					<rect x="69.724" y="39.288" transform="matrix(1 -0.009 0.009 1 -0.3617 0.741)" fill="#B82025" width="25.169" height="2.708"/>
			</g>
			<g>
				<g>
					<path fill="#B82025" d="M93.598,40.741c1.117,1.847,2.993,2.961,4.955,3.648c1.978,0.703,4.076,1.091,6.2,1.641
						c2.112,0.551,4.334,1.242,6.322,2.687c0.987,0.717,1.879,1.63,2.578,2.674c0.704,1.044,1.214,2.2,1.576,3.372l-3.437,0.825
						c-0.307-1.835-1.064-3.497-2.435-4.783c-1.356-1.301-3.227-2.213-5.187-2.995c-1.963-0.791-4.056-1.46-6.035-2.464
						c-1.969-0.978-3.842-2.472-4.727-4.504L93.598,40.741z"/>
				</g>
				<g>
					<path fill="#B82025" d="M93.731,40.876c1.258,1.243,2.833,2.05,4.499,2.273c1.672,0.239,3.386,0.022,5.174-0.119
						c1.778-0.143,3.718-0.236,5.696,0.321c1.983,0.535,3.779,1.791,5.156,3.275l-2.768,2.196c-0.86-1.254-1.917-2.294-3.294-2.924
						c-1.37-0.646-3.038-0.871-4.785-0.996c-1.744-0.138-3.612-0.186-5.412-0.737c-1.809-0.536-3.37-1.708-4.428-3.152
						L93.731,40.876z"/>
				</g>
			</g>
			<g>
				<path fill="#F7C9A6" d="M90.341,49.94l-17.445,0.154c-0.575,0.005-1.046-0.457-1.052-1.032l-0.036-4.108
					c-0.005-0.575,0.458-1.046,1.033-1.051l17.444-0.155c0.576-0.005,1.047,0.458,1.052,1.033l0.036,4.108
					C91.379,49.464,90.916,49.935,90.341,49.94z"/>
			</g>
			<g>
				<g>
					<g>
						<circle fill="#333333" cx="76.699" cy="47.064" r="1.369"/>
					</g>
					<g>
						<path fill="#333333" d="M79.428,47.554c-0.057,0-0.115-0.015-0.17-0.043l-3.949-2.139c-0.173-0.093-0.237-0.311-0.144-0.484
							c0.094-0.174,0.31-0.238,0.484-0.144l3.949,2.139c0.173,0.093,0.237,0.311,0.143,0.483
							C79.678,47.486,79.555,47.554,79.428,47.554z"/>
					</g>
				</g>
				<g>
					<g>
						<circle fill="#333333" cx="87.404" cy="46.97" r="1.369"/>
					</g>
					<g>
						<path fill="#333333" d="M84.68,47.507c-0.125,0-0.246-0.066-0.311-0.182c-0.098-0.171-0.037-0.39,0.134-0.486l3.911-2.208
							c0.169-0.095,0.389-0.036,0.486,0.135c0.098,0.172,0.037,0.39-0.136,0.487l-3.909,2.207
							C84.8,47.492,84.739,47.507,84.68,47.507z"/>
					</g>
				</g>
			</g>
		</g>
		<g>
			<g>
				<g>
					<path fill="#DBDBDB" d="M94.708,8.612l0.244-8.176c6.708,21.352,7.1,65.108,7.113,66.961L99.8,67.414
						C99.798,66.965,100.113,28.134,94.708,8.612z"/>
				</g>
			</g>
			<g>
				<path fill="#404040" d="M103.198,87.325L102.49,67.95c1.023-0.345,1.954-0.989,2.753-1.859l-8.705,0.317
					c0.859,0.811,1.836,1.385,2.881,1.654l0.707,19.375c0.019,0.517,0.452,0.919,0.968,0.9l1.205-0.045
					C102.813,88.274,103.218,87.841,103.198,87.325z"/>
			</g>
		</g>
		<g>
			<g>
				
					<rect x="101.692" y="72.462" transform="matrix(0.9971 -0.0761 0.0761 0.9971 -5.3573 8.2223)" fill="#F7C9A6" width="7.032" height="3.888"/>
			</g>
			<g>
				<circle fill="#F7C9A6" cx="101.041" cy="74.661" r="2.991"/>
			</g>
			<g>
				<path fill="#F7C9A6" d="M98.224,76.979l-0.307-3.998c-0.045-0.598,0.402-1.12,1-1.166l1.894-0.145
					c0.599-0.045,1.12,0.402,1.166,1l0.306,4c0.046,0.597-0.401,1.118-1,1.164l-1.894,0.146
					C98.791,78.025,98.269,77.579,98.224,76.979z"/>
			</g>
		</g>
		<g>
			<g>
				
					<rect x="93.31" y="80.253" transform="matrix(-0.9876 -0.1568 0.1568 -0.9876 179.5679 178.5577)" fill="#F7C9A6" width="7.032" height="3.888"/>
			</g>
			<g>
				<circle fill="#F7C9A6" cx="100.959" cy="82.788" r="2.991"/>
			</g>
			<g>
				<path fill="#F7C9A6" d="M103.58,85.328l0.629-3.961c0.094-0.593-0.311-1.148-0.902-1.243l-1.877-0.298
					c-0.593-0.094-1.148,0.311-1.242,0.903l-0.629,3.961c-0.095,0.592,0.31,1.148,0.902,1.241l1.876,0.299
					C102.93,86.325,103.484,85.921,103.58,85.328z"/>
			</g>
		</g>
		<g>
			<path fill="#FFFFFF" d="M112.588,75.85l-5.702,0.696c-1.366,0.168-2.61-0.805-2.778-2.172c-0.139-1.137,0.513-2.187,1.52-2.606
				l5.304-2.204c1.674-0.695,3.593,0.098,4.288,1.77c0.695,1.673-0.098,3.592-1.771,4.289
				C113.172,75.736,112.872,75.812,112.588,75.85z"/>
		</g>
		<g>
			<path fill="#F5F5F5" d="M75.757,73.221l-5.311,6.155L67.4,72.974l27.155,6.118c1.313,0.297,2.139,1.601,1.844,2.914
				c-0.272,1.205-1.395,1.998-2.593,1.892l-27.729-2.442c-2.208-0.194-3.838-2.141-3.644-4.348c0.03-0.342,0.103-0.67,0.211-0.979
				l0.385-1.075l2.739-7.654c1.095-3.058,4.46-4.649,7.517-3.555c3.058,1.094,4.649,4.459,3.556,7.518
				C76.594,72.056,76.211,72.691,75.757,73.221z"/>
		</g>
	</g>
</g>
</svg>
