<?xml version="1.0" encoding="UTF-8"?>
<svg class="shades" width="130px" enable-background="new 0 0 200 83.572" version="1.1" viewBox="0 0 200 83.572" xml:space="preserve" xmlns="http://www.w3.org/2000/svg" xmlns:xlink="http://www.w3.org/1999/xlink">
          

            <linearGradient id="e" x1="354.7" x2="354.7" y1="-225.53" y2="-277.58" gradientTransform="matrix(1 0 0 -1 -206 -211.43)" gradientUnits="userSpaceOnUse">
              <stop stop-color="#444243" offset=".0162"/>
              <stop stop-color="#1D1D1D" offset=".7068"/>
              <stop stop-color="#010101" offset="1"/>
              
              
              
              
              
            </linearGradient>
            <path d="m189.29 25.763s6.938 55.318-29.297 54.354c-36.235-0.963-70.302-59.917-41.825-70.929 28.912-11.179 68.038-5.397 71.122 16.575z" fill="url(#e)" opacity=".85"/>

            <linearGradient id="d" x1="255.82" x2="255.82" y1="-225.53" y2="-277.58" gradientTransform="matrix(1 0 0 -1 -206 -211.43)" gradientUnits="userSpaceOnUse">
              <stop stop-color="#444243" offset=".0162"/>
              <stop stop-color="#1D1D1D" offset=".7068"/>
              <stop stop-color="#010101" offset="1"/>
              
              
              
              
              
            </linearGradient>
            <path d="m9.231 25.763s-6.938 55.318 29.297 54.354c36.235-0.963 70.302-59.917 41.825-70.929-28.911-11.179-68.038-5.397-71.122 16.575z" fill="url(#d)" opacity=".85"/>
            <path d="m90.943 23.933s7.743-2.313 16.696 0" fill="#010101" stroke="#010101" stroke-miterlimit="10" stroke-width="2.5098"/>
            <line x1="47.19" x2="148.7" y1="3.679" y2="3.679" fill="#010101" stroke="#010101" stroke-miterlimit="10" stroke-width="2.5098"/>
            <path d="m9.584 23.933h-6.906s-0.578 2.891-0.482 5.3l6.705 0.377s0.01-3.485 0.683-5.677z" fill="#010101"/>
            <path d="m189.82 23.933h6.906s0.576 2.891 0.481 5.3l-6.706 0.377c2e-3 0-8e-3 -3.485-0.681-5.677z" fill="#010101"/>
            <path d="m9.231 25.763s-6.938 55.318 29.297 54.354c36.235-0.963 70.302-59.917 41.825-70.929-28.911-11.179-68.038-5.397-71.122 16.575z" fill="none" stroke="#010101" stroke-miterlimit="10" stroke-width="2.5098"/>
            <path d="m189.29 25.763s6.938 55.318-29.297 54.354c-36.235-0.963-70.302-59.917-41.825-70.929 28.912-11.179 68.038-5.397 71.122 16.575z" fill="none" stroke="#010101" stroke-miterlimit="10" stroke-width="2.5098"/>
            
              
                <defs>
                  <path id="c" d="m9.231 25.763s-6.938 55.318 29.297 54.354c36.235-0.963 70.302-59.917 41.825-70.929-28.911-11.179-68.038-5.397-71.122 16.575z"/>
                </defs>
                <clipPath>
                  <use overflow="visible" xlink:href="#c"/>
                </clipPath>
              
              
                <defs>
                  <path id="b" d="m9.231 25.763s-6.938 55.318 29.297 54.354c36.235-0.963 70.302-59.917 41.825-70.929-28.911-11.179-68.038-5.397-71.122 16.575z"/>
                </defs>
                <clipPath id="a">
                  <use overflow="visible" xlink:href="#b"/>
                </clipPath>
                <g clip-path="url(#a)">
                  <path d="m80.354 9.188s-0.561-0.194-1.613-0.56c-1.047-0.379-2.607-0.86-4.604-1.424-2.002-0.542-4.449-1.154-7.292-1.66-2.842-0.506-6.069-0.953-9.605-1.237-7.062-0.556-15.434-0.318-24.033 1.72-2.14 0.529-4.297 1.151-6.403 1.98-2.118 0.797-4.192 1.78-6.152 2.977-3.941 2.326-7.43 5.683-9.329 9.881-0.964 2.09-1.519 4.327-1.658 6.66-0.21 2.338-0.322 4.681-0.367 7.005-0.081 4.648 0.146 9.228 0.691 13.617 0.587 4.38 1.461 8.577 2.76 12.408 1.3 3.824 3.077 7.256 5.221 10.042 2.143 2.788 4.654 4.896 7.136 6.318 0.635 0.333 1.25 0.655 1.843 0.966 0.626 0.24 1.23 0.473 1.81 0.694 0.573 0.249 1.151 0.396 1.707 0.529 0.554 0.142 1.082 0.277 1.583 0.405 1.016 0.19 1.938 0.288 2.733 0.411 0.796 0.13 1.487 0.084 2.041 0.127 1.112 0.042 1.706 0.064 1.706 0.064s-0.594-3e-3 -1.707-9e-3c-0.556-0.025-1.248 0.042-2.05-0.063-0.802-0.098-1.732-0.167-2.762-0.325-0.509-0.112-1.046-0.232-1.609-0.357-0.565-0.118-1.156-0.247-1.744-0.48-0.596-0.207-1.217-0.422-1.86-0.646-0.614-0.297-1.25-0.605-1.908-0.923-2.58-1.363-5.237-3.446-7.475-6.281-2.251-2.818-4.132-6.298-5.528-10.173-1.394-3.879-2.376-8.13-2.976-12.572-0.579-4.445-0.836-9.076-0.782-13.776 0.031-2.35 0.13-4.717 0.329-7.092 0.127-2.391 0.705-4.854 1.727-7.074 2.062-4.482 5.78-7.981 9.867-10.362 2.038-1.227 4.179-2.226 6.354-3.028 2.164-0.837 4.37-1.459 6.553-1.984 4.376-1.026 8.702-1.513 12.801-1.688 4.102-0.171 7.985-0.018 11.544 0.324 3.562 0.333 6.795 0.894 9.633 1.497 2.839 0.6 5.273 1.293 7.263 1.9 1.984 0.628 3.529 1.162 4.563 1.573 1.037 0.404 1.592 0.616 1.592 0.616z" fill="#626367"/>
                </g>
              
            
            
              <path d="m52.695 3.116s6.035-0.051 15.088-0.126c9.053-0.029 21.124-0.069 33.193-0.108 12.07 0.04 24.142 0.079 33.194 0.108 9.054 0.076 15.088 0.126 15.088 0.126s-6.034 0.051-15.088 0.126c-9.054 0.03-21.124 0.069-33.194 0.108-12.07-0.04-24.141-0.079-33.193-0.108-9.053-0.075-15.088-0.126-15.088-0.126z" fill="#fff"/>
            
          
        </svg>
