<?xml version="1.0" encoding="utf-8"?>
<!-- Generator: Adobe Illustrator 16.0.0, SVG Export Plug-In . SVG Version: 6.00 Build 0)  -->
<!DOCTYPE svg PUBLIC "-//W3C//DTD SVG 1.1//EN" "http://www.w3.org/Graphics/SVG/1.1/DTD/svg11.dtd" [
	<!ENTITY ns_flows "http://ns.adobe.com/Flows/1.0/">
	<!ENTITY ns_extend "http://ns.adobe.com/Extensibility/1.0/">
	<!ENTITY ns_ai "http://ns.adobe.com/AdobeIllustrator/10.0/">
	<!ENTITY ns_graphs "http://ns.adobe.com/Graphs/1.0/">
]>
<svg version="1.1" id="Layer_1" xmlns:x="&ns_extend;" xmlns:i="&ns_ai;" xmlns:graph="&ns_graphs;"
	 xmlns="http://www.w3.org/2000/svg" xmlns:xlink="http://www.w3.org/1999/xlink" xmlns:a="http://ns.adobe.com/AdobeSVGViewerExtensions/3.0/"
	 x="0px" y="0px" width="200px" height="83.572px" viewBox="0 0 200 83.572" enable-background="new 0 0 200 83.572"
	 xml:space="preserve">
<g>
	
		<linearGradient id="SVGID_1_" gradientUnits="userSpaceOnUse" x1="354.6973" y1="-225.531" x2="354.6973" y2="-277.5844" gradientTransform="matrix(1 0 0 -1 -206 -211.4282)">
		<stop  offset="0.0162" style="stop-color:#444243"/>
		<stop  offset="0.7068" style="stop-color:#1D1D1D"/>
		<stop  offset="1" style="stop-color:#010101"/>
		<a:midPointStop  offset="0.0162" style="stop-color:#444243"/>
		<a:midPointStop  offset="0.5" style="stop-color:#444243"/>
		<a:midPointStop  offset="0.7068" style="stop-color:#1D1D1D"/>
		<a:midPointStop  offset="0.5" style="stop-color:#1D1D1D"/>
		<a:midPointStop  offset="1" style="stop-color:#010101"/>
	</linearGradient>
	<path opacity="0.85" fill="url(#SVGID_1_)" d="M189.288,25.763c0,0,6.938,55.318-29.297,54.354
		C123.756,79.154,89.689,20.2,118.166,9.188C147.078-1.991,186.204,3.791,189.288,25.763z"/>
	
		<linearGradient id="SVGID_2_" gradientUnits="userSpaceOnUse" x1="255.8203" y1="-225.531" x2="255.8203" y2="-277.5844" gradientTransform="matrix(1 0 0 -1 -206 -211.4282)">
		<stop  offset="0.0162" style="stop-color:#444243"/>
		<stop  offset="0.7068" style="stop-color:#1D1D1D"/>
		<stop  offset="1" style="stop-color:#010101"/>
		<a:midPointStop  offset="0.0162" style="stop-color:#444243"/>
		<a:midPointStop  offset="0.5" style="stop-color:#444243"/>
		<a:midPointStop  offset="0.7068" style="stop-color:#1D1D1D"/>
		<a:midPointStop  offset="0.5" style="stop-color:#1D1D1D"/>
		<a:midPointStop  offset="1" style="stop-color:#010101"/>
	</linearGradient>
	<path opacity="0.85" fill="url(#SVGID_2_)" d="M9.231,25.763c0,0-6.938,55.318,29.297,54.354
		C74.763,79.154,108.83,20.2,80.353,9.188C51.442-1.991,12.315,3.791,9.231,25.763z"/>
	<path fill="none" stroke="#010101" stroke-width="2.5098" stroke-miterlimit="10" d="M90.943,23.933c0,0,7.743-2.313,16.696,0"/>
	<line fill="none" stroke="#010101" stroke-width="2.5098" stroke-miterlimit="10" x1="47.19" y1="3.679" x2="148.698" y2="3.679"/>
	<path fill="#010101" d="M9.584,23.933H2.678c0,0-0.578,2.891-0.482,5.3l6.705,0.377C8.901,29.61,8.911,26.125,9.584,23.933z"/>
	<path fill="#010101" d="M189.82,23.933h6.906c0,0,0.576,2.891,0.481,5.3l-6.706,0.377C190.503,29.61,190.493,26.125,189.82,23.933z
		"/>
	<path fill="none" stroke="#010101" stroke-width="2.5098" stroke-miterlimit="10" d="M9.231,25.763c0,0-6.938,55.318,29.297,54.354
		C74.763,79.154,108.83,20.2,80.353,9.188C51.442-1.991,12.315,3.791,9.231,25.763z"/>
	<path fill="none" stroke="#010101" stroke-width="2.5098" stroke-miterlimit="10" d="M189.288,25.763
		c0,0,6.938,55.318-29.297,54.354C123.756,79.154,89.689,20.2,118.166,9.188C147.078-1.991,186.204,3.791,189.288,25.763z"/>
	<g>
		<g>
			<defs>
				<path id="SVGID_3_" d="M9.231,25.763c0,0-6.938,55.318,29.297,54.354C74.763,79.154,108.83,20.2,80.353,9.188
					C51.442-1.991,12.315,3.791,9.231,25.763z"/>
			</defs>
			<clipPath id="SVGID_4_">
				<use xlink:href="#SVGID_3_"  overflow="visible"/>
			</clipPath>
		</g>
		<g>
			<defs>
				<path id="SVGID_5_" d="M9.231,25.763c0,0-6.938,55.318,29.297,54.354C74.763,79.154,108.83,20.2,80.353,9.188
					C51.442-1.991,12.315,3.791,9.231,25.763z"/>
			</defs>
			<clipPath id="SVGID_6_">
				<use xlink:href="#SVGID_5_"  overflow="visible"/>
			</clipPath>
			<g clip-path="url(#SVGID_6_)">
				<path fill="#626367" d="M80.354,9.188c0,0-0.561-0.194-1.613-0.56c-1.047-0.379-2.607-0.86-4.604-1.424
					c-2.002-0.542-4.449-1.154-7.292-1.66c-2.842-0.506-6.069-0.953-9.605-1.237c-7.062-0.556-15.434-0.318-24.033,1.72
					c-2.14,0.529-4.297,1.151-6.403,1.98c-2.118,0.797-4.192,1.78-6.152,2.977c-3.941,2.326-7.43,5.683-9.329,9.881
					c-0.964,2.09-1.519,4.327-1.658,6.66c-0.21,2.338-0.322,4.681-0.367,7.005c-0.081,4.648,0.146,9.228,0.691,13.617
					c0.587,4.38,1.461,8.577,2.76,12.408c1.3,3.824,3.077,7.256,5.221,10.042c2.143,2.788,4.654,4.896,7.136,6.318
					c0.635,0.333,1.25,0.655,1.843,0.966c0.626,0.24,1.23,0.473,1.81,0.694c0.573,0.249,1.151,0.396,1.707,0.529
					c0.554,0.142,1.082,0.277,1.583,0.405c1.016,0.19,1.938,0.288,2.733,0.411c0.796,0.13,1.487,0.084,2.041,0.127
					c1.112,0.042,1.706,0.064,1.706,0.064s-0.594-0.003-1.707-0.009c-0.556-0.025-1.248,0.042-2.05-0.063
					c-0.802-0.098-1.732-0.167-2.762-0.325c-0.509-0.112-1.046-0.232-1.609-0.357c-0.565-0.118-1.156-0.247-1.744-0.48
					c-0.596-0.207-1.217-0.422-1.86-0.646c-0.614-0.297-1.25-0.605-1.908-0.923c-2.58-1.363-5.237-3.446-7.475-6.281
					c-2.251-2.818-4.132-6.298-5.528-10.173c-1.394-3.879-2.376-8.13-2.976-12.572c-0.579-4.445-0.836-9.076-0.782-13.776
					c0.031-2.35,0.13-4.717,0.329-7.092c0.127-2.391,0.705-4.854,1.727-7.074c2.062-4.482,5.78-7.981,9.867-10.362
					c2.038-1.227,4.179-2.226,6.354-3.028c2.164-0.837,4.37-1.459,6.553-1.984c4.376-1.026,8.702-1.513,12.801-1.688
					c4.102-0.171,7.985-0.018,11.544,0.324c3.562,0.333,6.795,0.894,9.633,1.497c2.839,0.6,5.273,1.293,7.263,1.9
					c1.984,0.628,3.529,1.162,4.563,1.573C79.799,8.976,80.354,9.188,80.354,9.188z"/>
			</g>
		</g>
	</g>
	<g>
		<path fill="#FFFFFF" d="M52.695,3.116c0,0,6.035-0.051,15.088-0.126c9.053-0.029,21.124-0.069,33.193-0.108
			c12.07,0.04,24.142,0.079,33.194,0.108c9.054,0.076,15.088,0.126,15.088,0.126s-6.034,0.051-15.088,0.126
			c-9.054,0.03-21.124,0.069-33.194,0.108C88.906,3.31,76.835,3.271,67.783,3.242C58.73,3.167,52.695,3.116,52.695,3.116z"/>
	</g>
</g>
</svg>
