<?xml version="1.0" standalone="no"?>
<!DOCTYPE svg PUBLIC "-//W3C//DTD SVG 20010904//EN"
 "http://www.w3.org/TR/2001/REC-SVG-20010904/DTD/svg10.dtd">
<svg version="1.0" xmlns="http://www.w3.org/2000/svg"
 width="784.000000pt" height="784.000000pt" viewBox="0 0 784.000000 784.000000"
 preserveAspectRatio="xMidYMid meet">
<metadata>
Created by potrace 1.11, written by Peter Selinger 2001-2013
</metadata>
<g transform="translate(0.000000,784.000000) scale(0.100000,-0.100000)"
fill="#000000" stroke="none">
<path d="M3638 7836 c-1 -2 -55 -7 -118 -10 -175 -11 -393 -39 -600 -77 -30
-6 -68 -13 -85 -15 -16 -3 -73 -16 -125 -29 -52 -13 -106 -26 -120 -29 -83
-16 -462 -142 -580 -193 -571 -249 -989 -571 -1259 -970 -42 -62 -42 -64 -36
-125 3 -35 8 -74 10 -88 2 -14 7 -54 10 -90 3 -36 8 -74 10 -85 2 -11 7 -42
10 -70 7 -57 12 -98 21 -152 3 -21 7 -51 9 -68 3 -16 7 -48 11 -70 4 -22 8
-49 9 -60 3 -24 44 -245 60 -325 2 -14 7 -38 10 -55 6 -37 5 -34 49 -235 49
-219 120 -493 182 -700 92 -301 244 -734 319 -905 7 -16 38 -88 68 -160 254
-598 591 -1196 978 -1735 97 -135 314 -419 356 -465 10 -11 52 -61 93 -110 41
-50 77 -92 80 -95 3 -3 23 -25 44 -50 101 -116 256 -281 421 -445 158 -158
223 -219 399 -379 22 -20 45 -36 50 -36 6 0 34 21 61 47 188 173 283 262 384
364 248 249 364 376 605 659 48 57 209 263 293 375 319 427 578 845 823 1330
109 215 153 309 260 550 9 22 48 117 85 210 37 94 71 179 76 190 44 100 191
548 258 790 17 61 37 133 45 160 34 119 134 551 151 655 3 19 12 67 20 105 8
39 17 88 20 110 4 22 8 47 11 56 2 9 7 34 9 55 3 20 8 51 11 68 3 17 7 42 9
56 7 40 34 231 39 275 3 22 9 74 15 115 5 41 13 107 16 145 4 39 8 83 10 100
5 50 -128 228 -300 400 -137 137 -159 158 -270 241 -295 222 -609 385 -994
515 -97 33 -285 89 -348 104 -65 16 -295 64 -327 69 -21 4 -41 8 -45 10 -3 2
-33 7 -66 11 -32 3 -62 8 -65 10 -3 1 -35 6 -72 9 -37 4 -77 9 -90 11 -13 2
-54 7 -93 10 -38 4 -88 9 -110 11 -49 5 -692 14 -697 10z"/>
</g>
</svg>
